<svg id="Capa_1" data-name="Capa 1" xmlns="http://www.w3.org/2000/svg" viewBox="0 0 471.3 102.64"><defs><style>.cls-1{fill:#f39200;}</style></defs><title>Además contamos con</title><path class="cls-1" d="M36.05,73.28c-.11-1.51-.21-3-.31-4.55s-.21-3.06-.34-4.61l-2.78-.19c-.89-.07-1.8-.1-2.71-.1h-.43c-.11,1.57-.21,3.12-.29,4.64S29,71.51,29,73l-8.17-.13q2-11.67,3.66-23.27t2.78-23.4l9.83.16q1.24,11.67,3,23.19t4.1,23.19ZM32.23,34.44q-.66,6-1.24,12T29.91,58.5c.45,0,.92.07,1.4.07h3.6q-.55-6.09-1.24-12.06T32.23,34.44Z"/><path class="cls-1" d="M66.22,26.44l-.82,47H59.13V70.07a11.23,11.23,0,0,1-1.83,2.18,8.53,8.53,0,0,1-1.57,1.12,4.85,4.85,0,0,1-1.5.53,6.34,6.34,0,0,1-3.31-1A8.65,8.65,0,0,1,48,69.58a22.38,22.38,0,0,1-2.11-6.09,45.56,45.56,0,0,1-.82-9.37,35.82,35.82,0,0,1,.71-7.53,20.3,20.3,0,0,1,1.88-5.44,9.47,9.47,0,0,1,2.71-3.31,5.38,5.38,0,0,1,3.2-1.11,5.52,5.52,0,0,1,1.77.46A9.22,9.22,0,0,1,57,38.27a7.81,7.81,0,0,1,1.74,2l-.43-13.54Zm-6.9,30.79c0-1.49-.09-3-.14-4.55a29.26,29.26,0,0,0-.44-4.23,9.61,9.61,0,0,0-1.1-3.14,2.31,2.31,0,0,0-2.08-1.22,2.25,2.25,0,0,0-1.94,1,7.27,7.27,0,0,0-1,2.61,20.78,20.78,0,0,0-.4,3.53c-.05,1.29-.07,2.54-.07,3.76,0,.85,0,1.75,0,2.68s.09,1.87.18,2.8a25.12,25.12,0,0,0,.39,2.63,12.87,12.87,0,0,0,.66,2.21,4.41,4.41,0,0,0,1,1.52,1.87,1.87,0,0,0,1.36.55,2.11,2.11,0,0,0,1.66-.8,6.14,6.14,0,0,0,1.13-2.17,16.51,16.51,0,0,0,.64-3.22A38,38,0,0,0,59.32,57.23Z"/><path class="cls-1" d="M88.51,72.13A27.69,27.69,0,0,1,83,73.5a32.43,32.43,0,0,1-4.1.33,7.52,7.52,0,0,1-3.5-.78,8.51,8.51,0,0,1-2.6-2.1,11.76,11.76,0,0,1-1.81-3,21.1,21.1,0,0,1-1.14-3.61,29,29,0,0,1-.61-3.84C69.09,59.18,69,58,69,56.8a42.91,42.91,0,0,1,.69-8,24.62,24.62,0,0,1,2-6.29A11.52,11.52,0,0,1,75,38.42a6.91,6.91,0,0,1,4.38-1.49,7,7,0,0,1,3.69,1,8.32,8.32,0,0,1,2.85,3.11,18.19,18.19,0,0,1,1.81,5.31A40.13,40.13,0,0,1,88.32,54c0,.83,0,1.67,0,2.52s-.09,1.73-.18,2.65L76.52,60.69A14.55,14.55,0,0,0,76.93,63a7.32,7.32,0,0,0,.75,1.91,4,4,0,0,0,1.13,1.32,2.54,2.54,0,0,0,1.6.49,30,30,0,0,0,3.53-.21c1.17-.14,2.4-.31,3.69-.5Zm-12.19-17,5.43-1V52.88a16.92,16.92,0,0,0-.43-4.3,8.1,8.1,0,0,0-.91-2.24,2.14,2.14,0,0,0-1.34-1,2,2,0,0,0-1.51.88,5.61,5.61,0,0,0-.83,2A14.87,14.87,0,0,0,76.39,51c0,1-.07,2-.07,3.1Z"/><path class="cls-1" d="M111.88,52.26q-.12,3.91-.26,7.58c0,1-.09,2.13-.13,3.24s-.09,2.19-.15,3.25-.1,2.07-.14,3-.09,1.82-.13,2.57l-7.16.68q.25-4.32.42-7.57c.11-2.16.19-4,.25-5.58s.09-2.86.11-3.91,0-1.89,0-2.52,0-1.1,0-1.4,0-.5,0-.59a24,24,0,0,0-.15-3,7.33,7.33,0,0,0-.41-1.79,1.76,1.76,0,0,0-.63-.89,1.6,1.6,0,0,0-.84-.23,3.62,3.62,0,0,0-1.19.22,2.31,2.31,0,0,0-1.08.85A5.31,5.31,0,0,0,99.59,48a13.83,13.83,0,0,0-.29,3.14c0,2.48,0,4.91,0,7.27s0,4.5.08,6.39c0,2.2,0,4.31.1,6.31l-7.78.72q.25-3.47.34-6.77t.08-5.94c0-3.32-.07-6.6-.21-9.86s-.39-6.64-.74-10.15c1.4,0,2.54-.1,3.44-.16s1.6-.14,2.12-.23a9.73,9.73,0,0,0,1.4-.29l.07,4a16.66,16.66,0,0,1,1.52-2.09,11.53,11.53,0,0,1,1.75-1.69,9,9,0,0,1,1.91-1.11,5.42,5.42,0,0,1,2-.41,10.67,10.67,0,0,1,2.08.18,3.79,3.79,0,0,1,1.57.69,4.16,4.16,0,0,1,1.13,1.41,10.58,10.58,0,0,1,.78,2.3A16.77,16.77,0,0,1,112.29,40a10.17,10.17,0,0,1,1.54-1.47,7.12,7.12,0,0,1,1.78-1,5.84,5.84,0,0,1,2.09-.36,9.55,9.55,0,0,1,3,.43,3.71,3.71,0,0,1,2,1.72,10.17,10.17,0,0,1,1.11,3.66,45.12,45.12,0,0,1,.35,6.26q0,5.58-.27,11.19t-.55,11.56l-7.16.68q.39-6,.54-10.11t.18-6.62c0-1.68,0-2.9,0-3.65s0-1.17,0-1.26a19.51,19.51,0,0,0-.18-2.94,6.83,6.83,0,0,0-.49-1.78,2,2,0,0,0-.72-.87,1.83,1.83,0,0,0-.9-.23,5.13,5.13,0,0,0-.65.05,1.86,1.86,0,0,0-.76.33,3.2,3.2,0,0,0-.76.87,6.51,6.51,0,0,0-.71,1.63c.07,1,.11,1.85.12,2.62S111.88,52,111.88,52.26Z"/><path class="cls-1" d="M147.22,52.19q0,5.18-.05,10.33c0,3.44-.11,7-.22,10.76L141.27,73V68.54a8.61,8.61,0,0,1-2.22,2.69,10.87,10.87,0,0,1-2.36,1.39,7.89,7.89,0,0,1-2.58.59,6.31,6.31,0,0,1-2.94-.7,7.94,7.94,0,0,1-2.39-1.88,9.09,9.09,0,0,1-1.58-2.7,8.67,8.67,0,0,1-.58-3.15,8.93,8.93,0,0,1,.81-3.68,8.57,8.57,0,0,1,2.72-3.29c1.73-1.32,3.22-2.44,4.48-3.33a38.91,38.91,0,0,0,3.16-2.43,9,9,0,0,0,1.86-2.1,4.36,4.36,0,0,0,.6-2.3,5.89,5.89,0,0,0-.71-3.22,2.2,2.2,0,0,0-1.9-1.06,2,2,0,0,0-1.23.37,2.79,2.79,0,0,0-.81,1,5.17,5.17,0,0,0-.46,1.34,7.31,7.31,0,0,0-.15,1.46c0,.33,0,.68,0,1.08a7.48,7.48,0,0,0,.21,1.24l-7.51.13c0-.37-.08-.72-.1-1.06s0-.67,0-1a12.07,12.07,0,0,1,.69-4,10.91,10.91,0,0,1,2-3.53,10.05,10.05,0,0,1,3.22-2.5,9.47,9.47,0,0,1,4.35-1,7.75,7.75,0,0,1,7.83,4.8,16.09,16.09,0,0,1,1.24,4.89C147.12,48.44,147.22,50.3,147.22,52.19Zm-7.36,9.25q.16-.81.3-1.86c.08-.59.16-1.3.23-2.14s.11-1.78.16-2.83c-.35.48-.69.91-1,1.28s-.64.69-.92,1-.63.62-.92.88c-.5.41-1,.88-1.6,1.39a15.75,15.75,0,0,0-1.55,1.62,10.14,10.14,0,0,0-1.18,1.75,3.76,3.76,0,0,0-.47,1.74,2.65,2.65,0,0,0,.62,1.69,1.9,1.9,0,0,0,1.54.76,3,3,0,0,0,1.42-.39,5.26,5.26,0,0,0,1.4-1.11,8.1,8.1,0,0,0,1.2-1.67A7.66,7.66,0,0,0,139.86,61.44Zm3.7-39.51q.81.59,1.74,1.29c.63.47,1.2.91,1.72,1.32s1.21,1,1.8,1.47l-8.63,9.28L137.12,33Z"/><path class="cls-1" d="M166.37,63.24a10.88,10.88,0,0,1-1,4.85A9.33,9.33,0,0,1,163,71.22a9.16,9.16,0,0,1-3.19,1.68,11.54,11.54,0,0,1-3.27.51,12.48,12.48,0,0,1-2.22-.27,13.18,13.18,0,0,1-2-.6,5.85,5.85,0,0,1-1.91-1.19l.26-7.46A10.23,10.23,0,0,0,153,65.37a15.8,15.8,0,0,0,2.23.78,11.82,11.82,0,0,0,2.29.36A3.52,3.52,0,0,0,159,65.12a4,4,0,0,0,.5-2,5.15,5.15,0,0,0-.44-2,6.35,6.35,0,0,0-1.35-2l-2.18-2.21A24.86,24.86,0,0,1,153.08,54a18,18,0,0,1-2-3.63,11.65,11.65,0,0,1-.8-4.35,13.18,13.18,0,0,1,.64-4.23,9.54,9.54,0,0,1,1.8-3.28,7.93,7.93,0,0,1,2.78-2.13,8.29,8.29,0,0,1,3.54-.75,13.86,13.86,0,0,1,3.4.47,20.48,20.48,0,0,1,3.89,1.49l-.52,7.61a8.66,8.66,0,0,0-1.8-1.22,12.88,12.88,0,0,0-1.76-.74,10.94,10.94,0,0,0-1.87-.39,3.56,3.56,0,0,0-2.12,1.29,4.13,4.13,0,0,0-.89,2.73,5.62,5.62,0,0,0,.64,2.73,10.77,10.77,0,0,0,1.6,2.19c.65.69,1.35,1.37,2.11,2.06a17.2,17.2,0,0,1,2.14,2.34,13,13,0,0,1,1.7,3A11.36,11.36,0,0,1,166.37,63.24Z"/><path class="cls-1" d="M195.36,46.18a3.19,3.19,0,0,0-1.11-.92,7,7,0,0,0-1.31-.49,7.33,7.33,0,0,0-1.21-.21l-.78-.05a2.3,2.3,0,0,0-1.75.85,7,7,0,0,0-1.31,2.42,18.84,18.84,0,0,0-.81,3.81,40,40,0,0,0-.28,5,29.27,29.27,0,0,0,.37,4.88,11.08,11.08,0,0,0,1.33,3.79,7.13,7.13,0,0,0,2.55,2.54,9.13,9.13,0,0,0,4,1.11l-.2,5.62c-.37,0-.73.08-1.09.1l-1.06,0a15,15,0,0,1-4.86-.7,10.21,10.21,0,0,1-3.48-2,10.31,10.31,0,0,1-2.33-3,18,18,0,0,1-1.43-3.83,27.1,27.1,0,0,1-.7-4.41c-.12-1.56-.18-3.15-.18-4.79,0-1.13,0-2.39.08-3.77a40.08,40.08,0,0,1,.4-4.19,25.68,25.68,0,0,1,.94-4.1,12.92,12.92,0,0,1,1.75-3.55,8,8,0,0,1,6.87-3.41,12.15,12.15,0,0,1,2,.16,15.05,15.05,0,0,1,1.8.41A11.17,11.17,0,0,1,195,38a4.35,4.35,0,0,1,.85.51Z"/><path class="cls-1" d="M217.39,54.28a59.62,59.62,0,0,1-.36,7,30.36,30.36,0,0,1-1,5.21,14.56,14.56,0,0,1-1.6,3.66,9.14,9.14,0,0,1-2.06,2.34,6.84,6.84,0,0,1-2.43,1.24,10.07,10.07,0,0,1-2.68.36,11.78,11.78,0,0,1-2.63-.29,6.56,6.56,0,0,1-2.34-1.08,8.18,8.18,0,0,1-2-2.13,12.63,12.63,0,0,1-1.52-3.43,30.69,30.69,0,0,1-1-5,58.68,58.68,0,0,1-.35-6.83,43.92,43.92,0,0,1,.87-9.64,19,19,0,0,1,2.27-5.93,7.85,7.85,0,0,1,3.21-3,8.59,8.59,0,0,1,3.69-.83,12.51,12.51,0,0,1,2.43.24,6.66,6.66,0,0,1,2.33,1,8.18,8.18,0,0,1,2,2,11.67,11.67,0,0,1,1.63,3.32,26.72,26.72,0,0,1,1.08,5A52.72,52.72,0,0,1,217.39,54.28Zm-7,.27a47.66,47.66,0,0,0-.23-5.15,17.12,17.12,0,0,0-.62-3.19,3.56,3.56,0,0,0-1-1.62,1.94,1.94,0,0,0-1.21-.44,1.68,1.68,0,0,0-1.31.64,5.19,5.19,0,0,0-.93,2,21.93,21.93,0,0,0-.57,3.61c-.13,1.47-.2,3.27-.2,5.38a45.59,45.59,0,0,0,.25,5.31,16.23,16.23,0,0,0,.68,3.37,4.24,4.24,0,0,0,1.05,1.78,1.92,1.92,0,0,0,1.29.52c1,0,1.66-1,2.09-3A47,47,0,0,0,210.37,54.55Z"/><path class="cls-1" d="M233.8,72.82q.72-5.26,1-10.66t.31-11.31a15,15,0,0,0-.26-3.18,5.15,5.15,0,0,0-.69-1.83,1.93,1.93,0,0,0-.91-.82,2.75,2.75,0,0,0-.95-.18,3.17,3.17,0,0,0-1.23.23A2.51,2.51,0,0,0,230,46a7.41,7.41,0,0,0-.9,1.83,18.58,18.58,0,0,0-.7,3.11c-.19,1.28-.34,2.84-.44,4.69s-.15,4-.15,6.58V65c0,1,0,1.94,0,2.83s0,1.68,0,2.37a12.8,12.8,0,0,0,.08,1.45l-7.38-.06c.06-2,.11-3.75.14-5.31s.06-3,.09-4.3,0-2.53,0-3.68,0-2.27,0-3.38,0-2,0-3.09,0-2.2,0-3.42,0-2.55-.06-4-.07-3.06-.12-4.82l7.65-.2-.13,3.34a10.91,10.91,0,0,1,1.9-2.67,9.37,9.37,0,0,1,2-1.55,6.48,6.48,0,0,1,1.94-.74,10.06,10.06,0,0,1,1.7-.17,4.33,4.33,0,0,1,3.33,1.4,9.93,9.93,0,0,1,2.08,3.74,24.71,24.71,0,0,1,1.06,5.35q.3,3,.3,6.24,0,2.35-.12,4.77c-.07,1.62-.16,3.2-.26,4.76s-.21,3.06-.33,4.51-.22,2.79-.31,4Z"/><path class="cls-1" d="M257.63,28.89c-.17,1.76-.33,3.48-.46,5.15s-.25,3.33-.36,5l2.47-.11c.82,0,1.65-.1,2.5-.18l-.23,6.63c-.83,0-1.67-.06-2.53-.06h-2.53c-.18,3.13-.3,6.2-.38,9.2s-.11,6-.11,9.07c0,1.57,0,3.14.05,4.72s.07,3.18.11,4.79l-7.19.13q.22-7,.39-13.91t.16-13.87l-2.51.11q-1.27,0-2.52.15l.26-7.16c.76.11,1.55.2,2.35.26s1.6.12,2.36.17c0-1.7,0-3.37-.05-5s-.08-3.3-.15-5Z"/><path class="cls-1" d="M283.12,52.19q0,5.18,0,10.33t-.22,10.76L277.18,73V68.54A8.5,8.5,0,0,1,275,71.23a10.82,10.82,0,0,1-2.35,1.39,7.89,7.89,0,0,1-2.58.59,6.31,6.31,0,0,1-2.94-.7,7.81,7.81,0,0,1-2.39-1.88,9.12,9.12,0,0,1-1.59-2.7,8.87,8.87,0,0,1-.57-3.15,9.08,9.08,0,0,1,.8-3.68,8.69,8.69,0,0,1,2.73-3.29c1.72-1.32,3.22-2.44,4.48-3.33a38.57,38.57,0,0,0,3.15-2.43,9.35,9.35,0,0,0,1.87-2.1,4.36,4.36,0,0,0,.6-2.3,5.79,5.79,0,0,0-.72-3.22,2.19,2.19,0,0,0-1.89-1.06,2,2,0,0,0-1.23.37,2.81,2.81,0,0,0-.82,1,5.16,5.16,0,0,0-.45,1.34,7.31,7.31,0,0,0-.15,1.46c0,.33,0,.68.05,1.08a7.48,7.48,0,0,0,.21,1.24l-7.52.13c0-.37-.07-.72-.09-1.06s0-.67,0-1a12.07,12.07,0,0,1,.69-4,10.91,10.91,0,0,1,2-3.53,10.05,10.05,0,0,1,3.22-2.5,9.47,9.47,0,0,1,4.35-1,7.75,7.75,0,0,1,7.82,4.8,15.81,15.81,0,0,1,1.25,4.89C283,48.44,283.12,50.3,283.12,52.19Zm-7.35,9.25c.11-.54.21-1.16.29-1.86s.17-1.3.23-2.14.12-1.78.17-2.83c-.35.48-.69.91-1,1.28s-.63.69-.91,1-.63.62-.92.88c-.5.41-1,.88-1.6,1.39a14.75,14.75,0,0,0-1.55,1.62,10.14,10.14,0,0,0-1.18,1.75,3.76,3.76,0,0,0-.47,1.74,2.65,2.65,0,0,0,.62,1.69,1.89,1.89,0,0,0,1.54.76,3,3,0,0,0,1.42-.39,5.26,5.26,0,0,0,1.4-1.11,8.1,8.1,0,0,0,1.2-1.67A8,8,0,0,0,275.77,61.44Z"/><path class="cls-1" d="M307.25,52.26q-.13,3.91-.26,7.58c-.05,1-.09,2.13-.14,3.24s-.09,2.19-.14,3.25-.11,2.07-.15,3-.09,1.82-.13,2.57l-7.16.68q.27-4.32.43-7.57c.11-2.16.19-4,.24-5.58s.09-2.86.12-3.91,0-1.89,0-2.52,0-1.1,0-1.4,0-.5,0-.59a24.23,24.23,0,0,0-.14-3,7.82,7.82,0,0,0-.41-1.79,1.83,1.83,0,0,0-.64-.89,1.6,1.6,0,0,0-.83-.23,3.67,3.67,0,0,0-1.2.22,2.24,2.24,0,0,0-1.07.85A4.94,4.94,0,0,0,295,48a13.2,13.2,0,0,0-.3,3.14c0,2.48,0,4.91,0,7.27s0,4.5.08,6.39c0,2.2.06,4.31.1,6.31l-7.78.72c.17-2.31.29-4.57.34-6.77s.09-4.18.09-5.94c0-3.32-.08-6.6-.22-9.86s-.38-6.64-.73-10.15c1.39,0,2.54-.1,3.43-.16s1.6-.14,2.12-.23a10.24,10.24,0,0,0,1.41-.29l.06,4a17.73,17.73,0,0,1,1.52-2.09,11.53,11.53,0,0,1,1.75-1.69,8.85,8.85,0,0,1,1.92-1.11,5.35,5.35,0,0,1,2-.41,10.63,10.63,0,0,1,2.07.18,3.74,3.74,0,0,1,1.57.69,4,4,0,0,1,1.13,1.41,9.6,9.6,0,0,1,.78,2.3,18.43,18.43,0,0,1,1.3-1.75,10.11,10.11,0,0,1,1.53-1.47,7.3,7.3,0,0,1,1.78-1,5.86,5.86,0,0,1,2.1-.36,9.48,9.48,0,0,1,3,.43,3.77,3.77,0,0,1,2,1.72,10.17,10.17,0,0,1,1.11,3.66,45.36,45.36,0,0,1,.34,6.26q0,5.58-.26,11.19t-.56,11.56l-7.16.68q.41-6,.54-10.11t.18-6.62c0-1.68,0-2.9,0-3.65s0-1.17,0-1.26A19.51,19.51,0,0,0,312.1,48a6.46,6.46,0,0,0-.49-1.78,2,2,0,0,0-.72-.87,1.83,1.83,0,0,0-.9-.23,5.42,5.42,0,0,0-.65.05,1.88,1.88,0,0,0-.75.33,3.21,3.21,0,0,0-.77.87,6.54,6.54,0,0,0-.7,1.63c.06,1,.1,1.85.11,2.62S307.25,52,307.25,52.26Z"/><path class="cls-1" d="M342.38,54.28a59.62,59.62,0,0,1-.36,7,31.43,31.43,0,0,1-1,5.21,14.55,14.55,0,0,1-1.61,3.66,9.14,9.14,0,0,1-2.06,2.34,6.84,6.84,0,0,1-2.43,1.24,10.07,10.07,0,0,1-2.68.36,11.84,11.84,0,0,1-2.63-.29,6.56,6.56,0,0,1-2.34-1.08,8.18,8.18,0,0,1-2-2.13,12.63,12.63,0,0,1-1.52-3.43,30.69,30.69,0,0,1-1-5,58.89,58.89,0,0,1-.34-6.83,44,44,0,0,1,.86-9.64,19,19,0,0,1,2.27-5.93,7.85,7.85,0,0,1,3.21-3,8.63,8.63,0,0,1,3.69-.83,12.69,12.69,0,0,1,2.44.24,6.69,6.69,0,0,1,2.32,1,8.18,8.18,0,0,1,2,2,11.67,11.67,0,0,1,1.63,3.32,26.72,26.72,0,0,1,1.08,5A52.72,52.72,0,0,1,342.38,54.28Zm-7,.27a47.66,47.66,0,0,0-.23-5.15,16.34,16.34,0,0,0-.62-3.19,3.48,3.48,0,0,0-.95-1.62,1.92,1.92,0,0,0-1.21-.44,1.68,1.68,0,0,0-1.31.64,5.19,5.19,0,0,0-.93,2,21.93,21.93,0,0,0-.57,3.61c-.13,1.47-.2,3.27-.2,5.38a45.59,45.59,0,0,0,.25,5.31,16.23,16.23,0,0,0,.68,3.37,4.24,4.24,0,0,0,1.05,1.78,1.92,1.92,0,0,0,1.29.52c1,0,1.66-1,2.09-3A47,47,0,0,0,335.36,54.55Z"/><path class="cls-1" d="M360.85,63.24a10.88,10.88,0,0,1-1,4.85,8.9,8.9,0,0,1-5.61,4.81,11.54,11.54,0,0,1-3.27.51,12.48,12.48,0,0,1-2.22-.27,13.18,13.18,0,0,1-2-.6,5.85,5.85,0,0,1-1.91-1.19l.26-7.46a10.08,10.08,0,0,0,2.39,1.48,15.28,15.28,0,0,0,2.22.78,11.82,11.82,0,0,0,2.29.36,3.52,3.52,0,0,0,1.42-1.39,4,4,0,0,0,.51-2,5.18,5.18,0,0,0-.45-2,6.35,6.35,0,0,0-1.35-2L350,56.88A23.87,23.87,0,0,1,347.57,54a17.53,17.53,0,0,1-2-3.63,11.65,11.65,0,0,1-.8-4.35,13.46,13.46,0,0,1,.64-4.23,9.88,9.88,0,0,1,1.8-3.28A7.93,7.93,0,0,1,350,36.34a8.32,8.32,0,0,1,3.54-.75,13.86,13.86,0,0,1,3.4.47,20.48,20.48,0,0,1,3.89,1.49l-.52,7.61a8.66,8.66,0,0,0-1.8-1.22,12.88,12.88,0,0,0-1.76-.74,10.94,10.94,0,0,0-1.87-.39,3.59,3.59,0,0,0-2.12,1.29,4.13,4.13,0,0,0-.88,2.73,5.62,5.62,0,0,0,.63,2.73,10.46,10.46,0,0,0,1.61,2.19c.64.69,1.34,1.37,2.1,2.06a16.57,16.57,0,0,1,2.14,2.34,12.67,12.67,0,0,1,1.7,3A11.36,11.36,0,0,1,360.85,63.24Z"/><path class="cls-1" d="M389.85,46.18a3.31,3.31,0,0,0-1.12-.92,6.89,6.89,0,0,0-1.3-.49,7.51,7.51,0,0,0-1.21-.21l-.79-.05a2.32,2.32,0,0,0-1.75.85,7,7,0,0,0-1.3,2.42,18.8,18.8,0,0,0-.82,3.81,40,40,0,0,0-.28,5,29.21,29.21,0,0,0,.38,4.88A10.87,10.87,0,0,0,383,65.28a7.13,7.13,0,0,0,2.55,2.54,9.13,9.13,0,0,0,4.05,1.11l-.19,5.62c-.37,0-.74.08-1.1.1l-1.06,0a14.91,14.91,0,0,1-4.85-.7,10.16,10.16,0,0,1-3.49-2,10.48,10.48,0,0,1-2.33-3,17.42,17.42,0,0,1-1.42-3.83,26,26,0,0,1-.71-4.41c-.12-1.56-.18-3.15-.18-4.79,0-1.13,0-2.39.09-3.77a37.52,37.52,0,0,1,.39-4.19,24.66,24.66,0,0,1,.95-4.1,12.63,12.63,0,0,1,1.74-3.55,8.45,8.45,0,0,1,2.8-2.48,8.3,8.3,0,0,1,4.07-.93,12.07,12.07,0,0,1,2,.16,15.05,15.05,0,0,1,1.8.41,10.12,10.12,0,0,1,1.41.52,4.35,4.35,0,0,1,.85.51Z"/><path class="cls-1" d="M411.87,54.28a62.09,62.09,0,0,1-.35,7,32.41,32.41,0,0,1-1,5.21,14.55,14.55,0,0,1-1.61,3.66,9.14,9.14,0,0,1-2.06,2.34,6.84,6.84,0,0,1-2.43,1.24,10.07,10.07,0,0,1-2.68.36,11.84,11.84,0,0,1-2.63-.29,6.56,6.56,0,0,1-2.34-1.08,8.18,8.18,0,0,1-2-2.13,12.63,12.63,0,0,1-1.52-3.43,30.69,30.69,0,0,1-1-5,58.89,58.89,0,0,1-.34-6.83,44.63,44.63,0,0,1,.86-9.64,19,19,0,0,1,2.27-5.93,7.85,7.85,0,0,1,3.21-3,8.63,8.63,0,0,1,3.69-.83,12.69,12.69,0,0,1,2.44.24,6.69,6.69,0,0,1,2.32,1,8.18,8.18,0,0,1,2,2,11.67,11.67,0,0,1,1.63,3.32,26.72,26.72,0,0,1,1.08,5A52.72,52.72,0,0,1,411.87,54.28Zm-7,.27a47.66,47.66,0,0,0-.23-5.15,16.34,16.34,0,0,0-.62-3.19,3.48,3.48,0,0,0-.95-1.62,1.92,1.92,0,0,0-1.21-.44,1.68,1.68,0,0,0-1.31.64,5.19,5.19,0,0,0-.93,2,21.93,21.93,0,0,0-.57,3.61c-.13,1.47-.2,3.27-.2,5.38a45.59,45.59,0,0,0,.25,5.31,15.52,15.52,0,0,0,.69,3.37,4.13,4.13,0,0,0,1,1.78,1.92,1.92,0,0,0,1.29.52c1,0,1.66-1,2.09-3A47,47,0,0,0,404.85,54.55Z"/><path class="cls-1" d="M428.28,72.82c.48-3.51.83-7.06,1-10.66s.31-7.36.31-11.31a15,15,0,0,0-.26-3.18,5.36,5.36,0,0,0-.68-1.83,2,2,0,0,0-.92-.82,2.75,2.75,0,0,0-.95-.18,3.12,3.12,0,0,0-1.22.23,2.53,2.53,0,0,0-1.07.88,7.09,7.09,0,0,0-.89,1.83,17.52,17.52,0,0,0-.71,3.11c-.19,1.28-.34,2.84-.44,4.69s-.15,4-.15,6.58V65c0,1,0,1.94,0,2.83s0,1.68,0,2.37a10.31,10.31,0,0,0,.09,1.45l-7.39-.06q.09-3,.15-5.31c0-1.56.06-3,.08-4.3s0-2.53.05-3.68,0-2.27,0-3.38,0-2,0-3.09,0-2.2,0-3.42,0-2.55-.06-4-.07-3.06-.12-4.82l7.65-.2-.13,3.34a10.91,10.91,0,0,1,1.9-2.67,9.37,9.37,0,0,1,2-1.55,6.48,6.48,0,0,1,1.94-.74,10.06,10.06,0,0,1,1.7-.17,4.37,4.37,0,0,1,3.34,1.4,10.05,10.05,0,0,1,2.07,3.74,24.71,24.71,0,0,1,1.06,5.35q.3,3,.3,6.24,0,2.35-.12,4.77c-.07,1.62-.16,3.2-.26,4.76s-.21,3.06-.33,4.51-.22,2.79-.31,4Z"/><path class="cls-1" d="M448.61,47.32a3.43,3.43,0,0,1-.31,1.47,3.74,3.74,0,0,1-.83,1.2,4.17,4.17,0,0,1-1.23.81,3.78,3.78,0,0,1-3,0A4.17,4.17,0,0,1,442,50a3.9,3.9,0,0,1-.83-1.2,3.43,3.43,0,0,1-.31-1.47,3.9,3.9,0,0,1,.31-1.55,4,4,0,0,1,.83-1.26,4,4,0,0,1,1.23-.83,3.78,3.78,0,0,1,3,0,4,4,0,0,1,1.23.83,3.79,3.79,0,0,1,.83,1.26A3.9,3.9,0,0,1,448.61,47.32Zm0,23a3.66,3.66,0,0,1-.31,1.52,3.87,3.87,0,0,1-.83,1.23,4,4,0,0,1-1.23.83,3.78,3.78,0,0,1-3,0,3.89,3.89,0,0,1-2.06-2.06,3.66,3.66,0,0,1-.31-1.52,3.7,3.7,0,0,1,.31-1.5,4,4,0,0,1,.83-1.24,4.07,4.07,0,0,1,1.23-.84,3.78,3.78,0,0,1,3,0,4.07,4.07,0,0,1,1.23.84,3.8,3.8,0,0,1,.83,1.24A3.7,3.7,0,0,1,448.61,70.33Z"/></svg>