<?xml version="1.0" encoding="UTF-8" standalone="no"?>
<!-- Generator: Adobe Illustrator 22.0.0, SVG Export Plug-In . SVG Version: 6.00 Build 0)  -->

<svg
   xmlns:dc="http://purl.org/dc/elements/1.1/"
   xmlns:cc="http://creativecommons.org/ns#"
   xmlns:rdf="http://www.w3.org/1999/02/22-rdf-syntax-ns#"
   xmlns:svg="http://www.w3.org/2000/svg"
   xmlns="http://www.w3.org/2000/svg"
   xmlns:sodipodi="http://sodipodi.sourceforge.net/DTD/sodipodi-0.dtd"
   xmlns:inkscape="http://www.inkscape.org/namespaces/inkscape"
   version="1.1"
   id="Capa_1"
   x="0px"
   y="0px"
   viewBox="0 0 118.6 33.700001"
   xml:space="preserve"
   sodipodi:docname="logotipo_horizontal.svg"
   width="118.6"
   height="33.700001"
   inkscape:version="0.92.4 (33fec40, 2019-01-16)"><metadata
   id="metadata4739"><rdf:RDF><cc:Work
       rdf:about=""><dc:format>image/svg+xml</dc:format><dc:type
         rdf:resource="http://purl.org/dc/dcmitype/StillImage" /><dc:title></dc:title></cc:Work></rdf:RDF></metadata><defs
   id="defs4737" /><sodipodi:namedview
   pagecolor="#ffffff"
   bordercolor="#666666"
   borderopacity="1"
   objecttolerance="10"
   gridtolerance="10"
   guidetolerance="10"
   inkscape:pageopacity="0"
   inkscape:pageshadow="2"
   inkscape:window-width="1920"
   inkscape:window-height="1016"
   id="namedview4735"
   showgrid="false"
   inkscape:zoom="0.2979798"
   inkscape:cx="59.1"
   inkscape:cy="-102.5"
   inkscape:window-x="0"
   inkscape:window-y="27"
   inkscape:window-maximized="1"
   inkscape:current-layer="Capa_1" />
<style
   type="text/css"
   id="style4688">
	.st0{fill-rule:evenodd;clip-rule:evenodd;fill:#001689;}
	.st1{fill:#009FE4;}
	.st2{fill:#001689;}
</style>
<g
   id="g4732"
   transform="translate(-246.9,-259.8)">
	<g
   id="g4696">
		<path
   class="st0"
   d="m 275.1,263.8 c 0.9,0 1.8,0.3 2.5,0.9 0.7,0.6 1.5,1.8 1.3,3.4 -0.2,1.8 -1.7,3.2 -3.3,3.4 -1.5,0.1 -2.6,-0.4 -3.3,-1.3 -0.6,-0.7 -1.1,-1.8 -0.9,-3.2 0.1,-1 0.9,-2.1 1.7,-2.6 0.4,-0.4 1.2,-0.6 2,-0.6 z"
   id="path4690"
   inkscape:connector-curvature="0"
   style="clip-rule:evenodd;fill:#001689;fill-rule:evenodd" />
		<path
   class="st1"
   d="m 279.8,274.6 c -0.1,-0.7 -0.2,-1.4 -0.4,-2 -0.1,-0.5 -0.3,-0.9 -0.4,-1.3 0,0 0,0 0,0 -0.3,0.3 -0.6,0.6 -0.9,0.8 -0.7,0.5 -1.5,0.8 -2.3,0.9 -2.1,0.2 -3.7,-0.6 -4.7,-1.8 -0.9,-1 -1.5,-2.5 -1.3,-4.5 0.1,-0.7 0.4,-1.4 0.8,-2.1 0.4,-0.7 1,-1.2 1.6,-1.6 0.1,-0.1 0.2,-0.1 0.3,-0.2 -2.8,-1.9 -6.1,-3 -9.7,-3 -6.8,0 -12.6,3.9 -15.4,9.6 0,0 -0.3,0.7 -0.2,0.9 0.1,0.1 0.2,0.2 0.3,0.1 0,0 0,0 0,0 1.2,-1.8 3.1,-3.3 5.6,-4.3 1.6,-0.6 3.2,-0.9 4.7,-0.9 0,0 0,0 0,0 1.1,0 2.3,0.1 3.4,0.4 4.8,1.4 8.1,5.7 8.1,10.8 0,0 0,0 0,0.1 0,0 0,0 0.1,0 0.2,-0.1 0.5,-0.3 0.7,-0.4 0.1,0 0.1,-0.1 0.2,-0.1 0,0 0,0 0.1,0 0,0 0,0 0,0 1.1,-0.6 2.4,-0.9 3.7,-0.9 0.1,0 0.1,0 0.2,0 0.1,0 0.1,0 0.2,0 0,0 0,0 0,0 0.1,0 0.2,0 0.2,0 0.5,0 0.9,0.1 1.3,0.2 1.6,0.4 2.8,1.3 3.8,2.2 0,0 0,0 0.1,0 0,-0.9 0,-1.9 -0.1,-2.9 z"
   id="path4692"
   inkscape:connector-curvature="0"
   style="fill:#009fe4" />
		<path
   class="st2"
   d="m 279,279 c -0.3,-0.3 -0.6,-0.6 -1,-0.8 -1.2,-0.8 -2.5,-1.2 -4,-1.2 -0.9,0 -1.7,0.2 -2.5,0.4 -0.5,0.2 -0.9,0.4 -1.3,0.7 0,0 0,0 -0.1,0 -0.2,0.1 -0.5,0.3 -0.7,0.4 -0.1,0.1 -0.2,0.2 -0.3,0.3 0,0.1 -0.1,0.1 -0.1,0.2 0,0 0,0 0,0 0,0.1 -0.1,0.1 -0.1,0.2 -0.1,0.1 -0.1,0.3 -0.2,0.4 -0.5,1.4 -1.3,2.6 -2.3,3.5 -1.4,1.2 -3.2,2 -5.6,2.1 -0.1,0 -0.1,0 -0.2,0 -3,-0.2 -5.6,-1.8 -6.7,-4 0,0 0,0 0,0 0,0 0,0 0,-0.1 -0.3,-0.7 -0.5,-1.6 -0.6,-2.6 0,-0.1 0,-0.1 0,-0.2 0,-0.2 0,-0.4 0,-0.6 0,-3.1 2.4,-5.6 5.5,-5.8 0.4,0 0.7,0 0.8,0 0.1,0 0.2,0 0.3,0 0.2,0 0.4,0.1 0.7,0.1 2.5,0.6 4.2,2.7 3.6,5.6 0,0.2 -0.1,0.4 -0.1,0.6 -0.5,1.6 -1.9,2.7 -3.6,2.7 -2.1,0 -3.7,-1.7 -3.7,-3.9 0,-0.1 0,-0.2 0,-0.2 0,0 0,0 0,0 0.6,0 1.1,0 1.7,0 0,0 0,0 0,0 0,0.1 0,0.3 0,0.4 0,1.1 0.9,2 2,2 0,0 0.1,0 0.1,0 0.4,-0.1 0.8,-0.2 1.2,-0.5 0.9,-0.7 1.3,-2 0.8,-3.3 -0.4,-1 -1.5,-1.9 -2.8,-2 -0.1,0 -0.3,0 -0.4,0 -1.2,0 -2.3,0.5 -2.9,1 -0.6,0.5 -1.1,1.1 -1.3,2 -0.3,1.3 -0.1,2.7 0.4,3.9 0.9,1.8 2.7,3 4.7,3.1 0.1,0 0.2,0 0.4,0 0.1,0 0.2,0 0.3,0 0.1,0 0.2,0 0.3,0 4,-0.3 6.3,-2.8 6.7,-6.7 0.1,-0.7 0,-1.3 0,-1.9 -0.1,-0.9 -0.4,-1.8 -0.7,-2.6 -0.1,-0.3 -0.3,-0.6 -0.4,-0.9 -0.8,-1.3 -1.9,-2.5 -3.4,-3.3 -0.3,-0.2 -0.7,-0.3 -1,-0.5 -1.3,-0.5 -2.8,-0.9 -4.5,-0.7 0,0 0,0 0,0 -0.8,0.1 -1.6,0.2 -2.4,0.4 -1.5,0.4 -2.7,0.9 -3.8,1.7 -3,2.2 -4.9,6 -4.9,10.2 0,2.5 0.7,4.9 1.9,6.8 0,0 0,0 0,0 0.1,0.1 0.1,0.2 0.2,0.3 0,0 0.1,0.1 0.1,0.1 0.1,0.1 0.1,0.2 0.2,0.3 0,0 0.1,0.1 0.1,0.1 0.1,0.1 0.1,0.2 0.2,0.3 0,0 0,0.1 0.1,0.1 0.1,0.1 0.2,0.2 0.3,0.4 0,0 0,0 0,0.1 0.1,0.1 0.2,0.2 0.3,0.3 0,0 0,0 0,0 0,0 0.1,0.1 0.1,0.1 0.1,0.1 0.2,0.2 0.2,0.3 0,0 0.1,0.1 0.1,0.1 0.1,0.1 0.2,0.2 0.3,0.3 0,0 0,0 0,0 0.1,0.1 0.2,0.2 0.4,0.3 0,0 0,0 0,0 0.1,0.1 0.2,0.2 0.3,0.3 0,0 0.1,0 0.1,0.1 0.1,0.1 0.2,0.2 0.3,0.3 0,0 0,0 0.1,0.1 0.3,0.2 0.5,0.4 0.8,0.6 0,0 0,0 0,0 0.1,0.1 0.2,0.2 0.4,0.3 0,0 0,0 0.1,0 0.1,0.1 0.2,0.2 0.4,0.3 0,0 0,0 0,0 0.3,0.2 0.6,0.4 0.9,0.5 0,0 0,0 0,0 0.1,0.1 0.3,0.2 0.4,0.2 0,0 0,0 0,0 0.6,0.3 1.2,0.6 1.9,0.8 0,0 0,0 0,0 0.7,0.2 1.3,0.5 2,0.6 0,0 0,0 0,0 0.5,0.1 1,0.2 1.6,0.3 v 0 c 0,0 0,0 0,0 0.1,0 0.2,0 0.3,0 0,0 0,0 0,0 0,0 0,0 0,0 0.6,0.1 1.1,0.1 1.7,0.1 0,0 0,0 0.1,0 0.1,0 0.3,0 0.4,0 0,0 0,0 0,0 v 0 c 0,0 0,0 0.1,0 0,0 0,0 0,0 0.2,0 0.5,0 0.7,0 0,0 0,0 0,0 0,0 0,0 0,0 0.1,0 0.2,0 0.2,0 0.1,0 0.3,0 0.4,0 v 0 0 c 0.2,0 0.4,0 0.6,-0.1 0,0 0.1,0 0.1,0 0.2,0 0.4,-0.1 0.7,-0.1 0,0 0,0 0.1,0 0.2,0 0.4,-0.1 0.6,-0.1 0,0 0,0 0.1,0 0.4,-0.1 0.9,-0.2 1.3,-0.3 0,0 0,0 0.1,0 0.2,-0.1 0.4,-0.1 0.6,-0.2 0,0 0,0 0.1,0 0.4,-0.1 0.8,-0.3 1.2,-0.5 0,0 0,0 0.1,0 0.2,-0.1 0.4,-0.2 0.6,-0.3 0,0 0,0 0,0 0.2,-0.1 0.4,-0.2 0.6,-0.3 0,0 0,0 0,0 0.2,-0.1 0.4,-0.2 0.6,-0.3 0,0 0,0 0.1,0 0.4,-0.2 0.7,-0.5 1.1,-0.7 0,0 0,0 0,0 0.2,-0.1 0.3,-0.3 0.5,-0.4 0,0 0,0 0,0 0.3,-0.3 0.7,-0.5 1,-0.8 0,0 0,0 0,0 0.2,-0.1 0.3,-0.3 0.5,-0.4 0,0 0,0 0,0 0.3,-0.3 0.6,-0.6 0.9,-1 0,0 0,0 0,0 0.4,-0.5 0.9,-1 1.2,-1.6 0,0 0,0 0,0 0.4,-0.6 0.7,-1.1 1,-1.7 0,0 0,0 0,0 0.8,-1.6 1.4,-3.4 1.8,-5.2 0,0 0,0 0,0 -0.6,-0.1 -1,-0.4 -1.1,-0.5 z"
   id="path4694"
   inkscape:connector-curvature="0"
   style="fill:#001689" />
	</g>
	<g
   id="g4730">
		<g
   id="g4712">
			<rect
   x="286.20001"
   y="263.79999"
   class="st2"
   width="2.8"
   height="26.200001"
   id="rect4698"
   style="fill:#001689" />
			<path
   class="st2"
   d="m 323,280.5 c 0,-0.1 0,-0.1 0,-0.2 h -2.7 -9.8 v 2.4 h 9.7 c -0.6,2.7 -3,4.8 -5.9,4.8 -3.3,0 -6,-2.7 -6,-6.1 0,-3.3 2.7,-6 6,-6 2.1,0 3.9,1 5,2.6 l 2.1,-1.6 c -1.6,-2.2 -4.2,-3.7 -7.1,-3.7 -4.8,0 -8.7,3.9 -8.7,8.7 0,4.8 3.9,8.7 8.7,8.7 4.4,0 8,-3.2 8.6,-7.4 0,-0.1 0,-0.3 0,-0.4 0,-0.3 0,-0.6 0,-0.9 0.2,-0.4 0.2,-0.6 0.1,-0.9 z"
   id="path4700"
   inkscape:connector-curvature="0"
   style="fill:#001689" />
			<path
   class="st2"
   d="m 297.7,272.7 c -3.8,0 -6.9,3.1 -6.9,6.9 V 290 h 2.8 v -4.9 -5.5 0 0 c 0,-2.2 1.8,-4 4.1,-4 2.2,0 4.1,1.8 4.1,4 0,0 0,0 0,0.1 0,0 0,0 0,0 v 5.5 4.9 h 2.8 v -10.5 c -0.1,-3.8 -3.1,-6.9 -6.9,-6.9 z"
   id="path4702"
   inkscape:connector-curvature="0"
   style="fill:#001689" />
			<path
   class="st2"
   d="m 330.4,287.2 h -0.9 v 0 0 c -1.3,0 -2.3,-1 -2.3,-2.3 v 0 0 -1 -2.6 -8.7 h -2.8 v 12.8 c 0,2.5 2,4.5 4.5,4.5 h 3.4 v -1.5 -1.3 h -1.9 z"
   id="path4704"
   inkscape:connector-curvature="0"
   style="fill:#001689" />
			<path
   class="st2"
   d="m 365.5,281.2 c 0,-0.2 0,-0.5 0,-0.7 0,-0.1 0,-0.1 0,-0.2 h -2.7 -2.1 -2.3 v 0 h -7.5 c 0.1,-0.4 0.2,-0.8 0.3,-1.1 0,0 0,0 0,-0.1 0.1,-0.1 0.1,-0.2 0.2,-0.3 0,-0.1 0,-0.1 0.1,-0.2 0.1,-0.1 0.1,-0.2 0.2,-0.3 0,-0.1 0.1,-0.1 0.1,-0.2 0.1,-0.1 0.1,-0.2 0.2,-0.3 0,-0.1 0.1,-0.1 0.1,-0.2 0.1,-0.1 0.1,-0.2 0.2,-0.2 0.1,-0.1 0.1,-0.1 0.2,-0.2 0.1,-0.1 0.1,-0.2 0.2,-0.2 0.1,-0.1 0.1,-0.1 0.2,-0.2 0.1,-0.1 0.1,-0.1 0.2,-0.2 0.1,-0.1 0.3,-0.2 0.4,-0.3 0.1,0 0.1,-0.1 0.2,-0.1 0.1,-0.1 0.2,-0.1 0.3,-0.2 0.1,0 0.1,-0.1 0.2,-0.1 0.1,-0.1 0.2,-0.1 0.3,-0.1 0.1,0 0.1,-0.1 0.2,-0.1 0.1,0 0.2,-0.1 0.3,-0.1 0.1,0 0.2,0 0.2,-0.1 0.1,0 0.2,-0.1 0.3,-0.1 0.1,0 0.1,0 0.2,0 0.1,0 0.2,0 0.4,-0.1 0.1,0 0.1,0 0.2,0 0.2,0 0.4,0 0.6,0 0.2,0 0.4,0 0.5,0 0,0 0.1,0 0.1,0 0.2,0 0.3,0.1 0.5,0.1 0,0 0.1,0 0.1,0 0.1,0 0.3,0.1 0.4,0.1 0,0 0.1,0 0.1,0 0.2,0 0.3,0.1 0.4,0.2 0.1,0 0.1,0 0.2,0.1 0.1,0.1 0.2,0.1 0.3,0.2 0.1,0 0.2,0.1 0.2,0.1 0.1,0 0.2,0.1 0.2,0.1 0.1,0 0.2,0.1 0.2,0.2 0.1,0 0.1,0.1 0.2,0.1 0.1,0.1 0.3,0.2 0.4,0.3 0,0 0,0 0.1,0.1 0.3,0.3 0.6,0.7 0.9,1 v 0 l 2.1,-1.6 c -0.5,-0.7 -1.1,-1.3 -1.7,-1.8 0,0 0,0 0,0 -0.1,-0.1 -0.3,-0.2 -0.4,-0.3 0,0 0,0 0,0 -0.3,-0.2 -0.6,-0.4 -0.9,-0.5 0,0 0,0 0,0 -0.1,-0.1 -0.3,-0.1 -0.4,-0.2 0,0 -0.1,0 -0.1,-0.1 -0.1,-0.1 -0.2,-0.1 -0.3,-0.1 0,0 -0.1,0 -0.1,-0.1 -0.1,0 -0.3,-0.1 -0.4,-0.1 0,0 0,0 -0.1,0 -0.2,-0.1 -0.3,-0.1 -0.5,-0.1 0,0 -0.1,0 -0.1,0 -0.1,0 -0.3,-0.1 -0.4,-0.1 0,0 -0.1,0 -0.2,0 -0.1,0 -0.2,0 -0.3,-0.1 -0.1,0 -0.1,0 -0.2,0 -0.1,0 -0.2,0 -0.3,0 -0.1,0 -0.1,0 -0.2,0 -0.2,0 -0.3,0 -0.5,0 -0.1,0 -0.3,0 -0.4,0 0,0 -0.1,0 -0.1,0 -0.1,0 -0.2,0 -0.3,0 -0.1,0 -0.1,0 -0.2,0 -0.1,0 -0.2,0 -0.3,0 -0.1,0 -0.1,0 -0.2,0 -0.1,0 -0.2,0 -0.2,0.1 -0.1,0 -0.1,0 -0.2,0 -0.1,0 -0.2,0 -0.2,0 -0.1,0 -0.1,0 -0.2,0 -0.1,0 -0.1,0 -0.2,0.1 -0.1,0 -0.1,0 -0.2,0.1 -0.1,0 -0.2,0 -0.2,0.1 -0.1,0 -0.1,0 -0.2,0.1 -0.1,0 -0.1,0.1 -0.2,0.1 -0.1,0 -0.1,0 -0.2,0.1 -0.1,0 -0.2,0.1 -0.2,0.1 -0.1,0 -0.1,0 -0.1,0.1 -0.1,0 -0.2,0.1 -0.3,0.2 0,0 -0.1,0.1 -0.1,0.1 -0.1,0.1 -0.2,0.1 -0.3,0.2 0,0 -0.1,0.1 -0.1,0.1 -0.1,0 -0.1,0.1 -0.2,0.1 -0.1,0 -0.1,0.1 -0.2,0.1 -0.1,0 -0.1,0.1 -0.2,0.1 0,0 -0.1,0.1 -0.2,0.1 -0.1,0 -0.1,0.1 -0.2,0.1 -0.1,0 -0.1,0.1 -0.2,0.1 -0.1,0 -0.1,0.1 -0.1,0.1 0,0.1 -0.1,0.1 -0.2,0.1 0,0 -0.1,0.1 -0.1,0.1 0,0 -0.1,0.1 -0.1,0.1 0,0.1 -0.1,0.1 -0.1,0.1 -0.1,0.1 -0.1,0.1 -0.1,0.2 0,0 -0.1,0.1 -0.1,0.1 -0.1,0.1 -0.1,0.1 -0.1,0.2 0,0 -0.1,0.1 -0.1,0.1 0,0.1 -0.1,0.1 -0.1,0.2 0,0 0,0 -0.1,0.1 -0.1,0.2 -0.2,0.3 -0.3,0.5 0,0 0,0 0,0.1 0,0.1 -0.1,0.1 -0.1,0.2 0,0 0,0.1 -0.1,0.1 0,0.1 -0.1,0.2 -0.1,0.2 0,0 0,0.1 -0.1,0.1 0,0.1 -0.1,0.2 -0.1,0.2 0,0.1 0,0.1 -0.1,0.1 0,0.1 -0.1,0.2 -0.1,0.2 0,0.1 0,0.1 -0.1,0.2 0,0.1 -0.1,0.1 -0.1,0.2 0,0 0,0.1 0,0.1 0,0.1 0,0.2 -0.1,0.2 0,0.1 0,0.1 0,0.1 0,0.1 0,0.2 -0.1,0.3 0,0 0,0.1 0,0.1 0,0.1 0,0.2 -0.1,0.3 0,0 0,0.1 0,0.1 0,0.1 0,0.2 0,0.3 0,0 0,0.1 0,0.1 0,0 0,0 0,0.1 0,0 0,0 0,0.1 v 0 c 0,0.1 0,0.2 0,0.2 0,0.2 0,0.5 0,0.7 0,0 0,0.1 0,0.1 0,0.1 0,0.1 0,0.2 0,0.2 0,0.5 0,0.7 v 0 c 0,0.1 0,0.1 0,0.2 0,0.1 0,0.2 0,0.2 h 2.7 2.1 5.4 2.3 2.1 c 0,0.1 0,0.2 -0.1,0.3 0,0.1 0,0.1 0,0.2 0,0.2 -0.1,0.3 -0.2,0.5 0,0 0,0 0,0 0,0.1 -0.1,0.2 -0.2,0.4 0,0.1 0,0.1 -0.1,0.1 -0.1,0.1 -0.1,0.2 -0.2,0.3 0,0.1 -0.1,0.1 -0.1,0.2 -0.1,0.1 -0.1,0.2 -0.2,0.2 -0.1,0.2 -0.2,0.3 -0.4,0.5 0,0 0,0 0,0 -0.1,0.2 -0.3,0.3 -0.5,0.5 0,0 0,0 -0.1,0.1 0,0 0,0 0,0 -0.1,0.1 -0.2,0.2 -0.4,0.3 -0.1,0 -0.1,0.1 -0.2,0.1 -0.1,0 -0.1,0.1 -0.2,0.1 0,0 0,0 0,0 0,0 0,0 0,0 0,0 0,0 0,0 -0.1,0.1 -0.2,0.1 -0.3,0.2 0,0 -0.1,0 -0.1,0.1 0,0 0,0 0,0 -0.1,0 -0.1,0.1 -0.2,0.1 -0.1,0 -0.1,0.1 -0.2,0.1 0,0 0,0 0,0 -0.1,0 -0.1,0 -0.2,0.1 0,0 0,0 0,0 v 0 c -0.1,0 -0.2,0.1 -0.3,0.1 0,0 -0.1,0 -0.1,0 0,0 -0.1,0 -0.1,0 -0.1,0 -0.3,0.1 -0.4,0.1 0,0 -0.1,0 -0.1,0 -0.2,0 -0.3,0.1 -0.5,0.1 0,0 0,0 -0.1,0 0,0 0,0 0,0 -0.2,0 -0.4,0 -0.6,0 -0.2,0 -0.4,0 -0.6,0 0,0 0,0 0,0 0,0 0,0 0,0 -0.2,0 -0.3,-0.1 -0.5,-0.1 0,0 -0.1,0 -0.1,0 -0.1,0 -0.3,-0.1 -0.4,-0.1 0,0 -0.1,0 -0.1,0 0,0 -0.1,0 -0.1,0 -0.1,0 -0.2,-0.1 -0.3,-0.1 v 0 c 0,0 0,0 -0.1,0 0,0 -0.1,0 -0.2,-0.1 0,0 0,0 0,0 -0.1,0 -0.1,-0.1 -0.2,-0.1 -0.1,0 -0.1,0 -0.2,-0.1 0,0 0,0 0,0 0,0 -0.1,-0.1 -0.1,-0.1 -0.1,-0.1 -0.2,-0.1 -0.3,-0.2 v 0 c 0,0 0,0 0,0 0,0 0,0 0,0 -0.1,0 -0.1,-0.1 -0.2,-0.1 -0.1,0 -0.1,-0.1 -0.2,-0.1 -0.1,-0.1 -0.3,-0.2 -0.4,-0.3 0,0 0,0 0,0 0,0 0,0 -0.1,-0.1 -0.3,-0.3 -0.6,-0.7 -0.9,-1 0,0 0,0 0,0 v 0 l -2.1,1.6 c 0,0 0,0 0,0 0.5,0.7 1.1,1.3 1.7,1.8 0,0 0,0 0,0 0.1,0.1 0.3,0.2 0.4,0.3 0,0 0,0 0,0 0.3,0.2 0.5,0.4 0.8,0.5 0,0 0,0 0,0 0,0 0,0 0,0 0.1,0.1 0.2,0.1 0.4,0.2 0,0 0.1,0 0.1,0 0.1,0.1 0.2,0.1 0.3,0.2 0,0 0.1,0 0.1,0 0.1,0 0.3,0.1 0.4,0.1 0,0 0,0 0,0 0,0 0.1,0 0.1,0 0.1,0 0.2,0.1 0.4,0.1 0,0 0.1,0 0.1,0 0,0 0,0 0,0 0.1,0 0.3,0.1 0.4,0.1 0.1,0 0.1,0 0.2,0 0.1,0 0.2,0 0.3,0 0,0 0,0 0.1,0 0,0 0.1,0 0.1,0 0,0 0,0 0,0 0.1,0 0.2,0 0.3,0 0,0 0.1,0 0.1,0 0,0 0,0 0.1,0 0.2,0 0.3,0 0.5,0 0.2,0 0.3,0 0.5,0 0,0 0.1,0 0.1,0 0,0 0.1,0 0.1,0 0.1,0 0.2,0 0.3,0 0,0 0,0 0,0 0,0 0.1,0 0.1,0 0,0 0,0 0.1,0 0.1,0 0.2,0 0.3,0 0,0 0.1,0 0.2,0 0.1,0 0.3,-0.1 0.4,-0.1 0,0 0,0 0,0 0,0 0.1,0 0.1,0 0.1,0 0.2,-0.1 0.4,-0.1 0,0 0.1,0 0.1,0 0,0 0,0 0,0 0.1,0 0.3,-0.1 0.4,-0.1 0,0 0.1,0 0.1,0 0.1,-0.1 0.2,-0.1 0.3,-0.2 0,0 0.1,0 0.1,0 0.1,-0.1 0.2,-0.1 0.4,-0.2 0,0 0,0 0,0 0,0 0,0 0,0 0.3,-0.2 0.6,-0.3 0.8,-0.5 0,0 0,0 0,0 0.1,-0.1 0.3,-0.2 0.4,-0.3 0,0 0,0 0,0 0.7,-0.5 1.2,-1.1 1.7,-1.8 0,0 0,0 0,0 0.1,-0.1 0.2,-0.3 0.3,-0.4 0,0 0,0 0,-0.1 0,-0.1 0.1,-0.2 0.1,-0.2 0,0 0,-0.1 0.1,-0.1 0,-0.1 0.1,-0.1 0.1,-0.2 0,0 0,-0.1 0.1,-0.1 0,-0.1 0.1,-0.2 0.1,-0.2 0,0 0,-0.1 0.1,-0.1 0,-0.1 0.1,-0.1 0.1,-0.2 0,0 0,-0.1 0.1,-0.1 0,-0.1 0.1,-0.2 0.1,-0.2 0,-0.1 0,-0.1 0,-0.2 0,-0.1 0.1,-0.2 0.1,-0.2 0,0 0,-0.1 0,-0.2 0,-0.1 0,-0.2 0.1,-0.2 0,0 0,-0.1 0,-0.1 0,-0.1 0,-0.2 0.1,-0.3 0,0 0,-0.1 0,-0.1 0,-0.1 0,-0.2 0,-0.3 0,0 0,0 0,-0.1 0,0 0,0 0,-0.1 0,-0.1 0,-0.2 0,-0.3 0,0 0,0 0,-0.1 0,-0.1 0,-0.1 0,-0.2 0,-0.1 0,-0.1 0,-0.2 0,-0.1 0,-0.3 0,-0.4 v 0 0 c 0.6,-0.1 0.6,-0.1 0.6,-0.2 z"
   id="path4706"
   inkscape:connector-curvature="0"
   style="fill:#001689" />
			<path
   class="st2"
   d="m 346.9,284.2 c 0,0.1 0,0.1 0,0.1 h -2 -7.2 v -1.7 h 7.2 c -0.4,-2 -2.2,-3.5 -4.4,-3.5 -2.5,0 -4.5,2 -4.5,4.5 0,2.5 2,4.5 4.5,4.5 1.5,0 2.9,-0.8 3.7,-2 l 1.6,1.2 c -1.2,1.6 -3.1,2.7 -5.3,2.7 -3.6,0 -6.4,-2.9 -6.4,-6.4 0,-3.6 2.9,-6.4 6.4,-6.4 3.2,0 5.9,2.4 6.4,5.5 0,0.1 0,0.2 0,0.3 0,0.2 0,0.4 0,0.6 0.1,0.2 0.1,0.4 0,0.6 z"
   id="path4708"
   inkscape:connector-curvature="0"
   style="fill:#001689" />
			<polygon
   class="st0"
   points="338,276.3 340.4,276.3 343.4,272.7 340.3,272.7 "
   id="polygon4710"
   style="clip-rule:evenodd;fill:#001689;fill-rule:evenodd" />
		</g>
		<g
   id="g4728">
			<path
   class="st1"
   d="m 313,267.4 c 0,2 -2.6,3.6 -5.9,3.6 -3.3,0 -5.9,-1.6 -5.9,-3.6 0,-2 2.7,-3.6 5.9,-3.6 3.3,0 5.9,1.6 5.9,3.6 z m -5.9,-2.5 c -2.3,0 -4.1,1.1 -4.1,2.5 0,1.4 1.9,2.5 4.1,2.5 2.3,0 4.1,-1.1 4.1,-2.5 0,-1.4 -1.8,-2.5 -4.1,-2.5 z"
   id="path4714"
   inkscape:connector-curvature="0"
   style="fill:#009fe4" />
			<path
   class="st1"
   d="m 365.5,267.4 c 0,2 -2.7,3.6 -5.9,3.6 -3.3,0 -5.9,-1.6 -5.9,-3.6 0,-2 2.7,-3.6 5.9,-3.6 3.3,0 5.9,1.6 5.9,3.6 z m -5.9,-2.5 c -2.3,0 -4.1,1.1 -4.1,2.5 0,1.4 1.9,2.5 4.1,2.5 2.3,0 4.1,-1.1 4.1,-2.5 0,-1.4 -1.8,-2.5 -4.1,-2.5 z"
   id="path4716"
   inkscape:connector-curvature="0"
   style="fill:#009fe4" />
			<path
   class="st1"
   d="m 295.4,264.9 h 0.2 2.6 v -1.1 h -2.7 c -1.3,0 -2.5,0.4 -3.4,1.1 -0.8,0.6 -1.4,1.5 -1.4,2.5 0,1 0.5,1.8 1.4,2.5 0.9,0.7 2.1,1.1 3.4,1.1 h 2.7 v -1.1 h -2.6 -0.2 c -1.8,0 -3.2,-1.1 -3.2,-2.5 0,-1.4 1.4,-2.4 3.2,-2.5 z"
   id="path4718"
   inkscape:connector-curvature="0"
   style="fill:#009fe4" />
			<path
   class="st1"
   d="m 319.3,269.5 h -1.1 c 0,0 0,0 0,0 -0.5,0 -0.9,-0.4 -0.9,-0.9 0,0 0,0 0,0 v -1.1 -3.7 h -1.4 v 5.4 c 0,1 0.8,1.7 1.7,1.7 h 3.7 v -1.4 z"
   id="path4720"
   inkscape:connector-curvature="0"
   style="fill:#009fe4" />
			<path
   class="st1"
   d="m 328.9,264.9 h 0.2 2.6 v -1.1 H 329 c -1.3,0 -2.5,0.4 -3.4,1.1 -0.8,0.6 -1.4,1.5 -1.4,2.5 0,1 0.5,1.8 1.4,2.5 0.9,0.7 2.1,1.1 3.4,1.1 h 2.7 v -1.1 h -2.6 -0.2 c -1.5,0 -2.8,-0.9 -3.1,-1.9 h 5.7 v -1.1 h -5.7 c 0.3,-1.1 1.6,-2 3.1,-2 z"
   id="path4722"
   inkscape:connector-curvature="0"
   style="fill:#009fe4" />
			<path
   class="st1"
   d="m 344.6,266.9 h -2 -2.4 v 1.1 h 4.5 c -0.4,1.1 -2.1,1.9 -4,1.9 -2.3,0 -4.1,-1.1 -4.1,-2.5 0,-1.4 1.9,-2.5 4.1,-2.5 1.4,0 2.6,0.4 3.4,1 l 1.2,-0.8 c -1.1,-0.8 -2.7,-1.3 -4.6,-1.3 -3.3,0 -5.9,1.6 -5.9,3.6 0,2 2.7,3.6 5.9,3.6 3.3,0 5.9,-1.6 5.9,-3.6 0,-0.2 0,-0.4 -0.1,-0.5 z"
   id="path4724"
   inkscape:connector-curvature="0"
   style="fill:#009fe4" />
			<rect
   x="349.39999"
   y="263.79999"
   class="st1"
   width="1.4"
   height="7.0999999"
   id="rect4726"
   style="fill:#009fe4" />
		</g>
	</g>
</g>
</svg>