<?xml version="1.0" encoding="utf-8"?>
<!-- Generator: Adobe Illustrator 23.0.0, SVG Export Plug-In . SVG Version: 6.00 Build 0)  -->
<svg version="1.1" id="Capa_1" xmlns="http://www.w3.org/2000/svg" xmlns:xlink="http://www.w3.org/1999/xlink" x="0px" y="0px"
	 viewBox="0 0 404.1 191" style="enable-background:new 0 0 404.1 191;" xml:space="preserve">
<style type="text/css">
	.st0{fill:#F49E1D;}
	.st1{fill:#F39200;}
</style>
<title>Más que un Colegio Una gran familia Minúsculas</title>
<path class="st0" d="M403.8,179.4c0.6,0.2,0.5-0.3,0.6-0.4C403.3,178.9,403.8,179.5,403.8,179.4z"/>
<path class="st0" d="M13.3,172.6c0.3-0.1,0.7-0.2,1.2-0.3C14,172.4,13.6,172.5,13.3,172.6z"/>
<polygon class="st0" points="8.3,173.1 6.9,173.2 7.9,173.4 "/>
<path class="st0" d="M6,174.5l-0.5-0.6l-0.7,0.8C5.2,174.5,5.6,174.5,6,174.5z"/>
<g>
	<path class="st1" d="M80.4,134.2c0.4-3.3,0.8-6.7,0.9-10.1c0.2-3.4,0.3-7,0.3-10.7c0-1-0.1-2-0.3-3c-0.1-0.6-0.3-1.2-0.6-1.7
		c-0.2-0.3-0.5-0.6-0.9-0.8c-0.3-0.1-0.6-0.2-0.9-0.2c-0.4,0-0.8,0.1-1.2,0.2c-0.4,0.2-0.8,0.5-1,0.8c-0.4,0.5-0.7,1.1-0.9,1.7
		c-0.3,1-0.5,1.9-0.7,2.9c-0.2,1.2-0.3,2.7-0.4,4.4c-0.1,1.7-0.1,3.8-0.1,6.2v2.7c0,0.9,0,1.8,0,2.7s0,1.6,0,2.2
		c0,0.5,0,0.9,0.1,1.4h-6.9c0.1-1.9,0.1-3.6,0.1-5c0-1.5,0.1-2.8,0.1-4.1c0-1.2,0-2.4,0-3.5s0-2.1,0-3.2c0-1,0-1.9,0-2.9
		s0-2.1,0-3.2c0-1.2,0-2.4-0.1-3.8s-0.1-2.8-0.1-4.6l7.2-0.2l-0.1,3.1c0.5-0.9,1.1-1.8,1.8-2.5c0.6-0.6,1.2-1.1,1.9-1.5
		c0.6-0.3,1.2-0.6,1.8-0.7c0.5-0.1,1.1-0.2,1.6-0.2c1.2,0,2.3,0.4,3.1,1.3c0.9,1,1.6,2.2,2,3.5c0.5,1.6,0.9,3.3,1,5
		c0.2,1.9,0.3,3.9,0.3,5.9c0,1.5,0,3-0.1,4.5s-0.2,3-0.3,4.5c-0.1,1.5-0.2,2.9-0.3,4.3c-0.1,1.4-0.2,2.6-0.3,3.8L80.4,134.2z"/>
	<path class="st1" d="M110.4,114.7c0,3.3,0,6.5,0,9.8s-0.1,6.6-0.2,10.2l-5.4-0.3v-4.2c-0.5,1-1.2,1.9-2.1,2.6
		c-0.7,0.5-1.4,1-2.2,1.3c-0.8,0.3-1.6,0.5-2.4,0.6c-1,0-1.9-0.2-2.8-0.7c-0.9-0.4-1.7-1-2.3-1.8c-0.6-0.8-1.2-1.6-1.5-2.6
		c-0.4-0.9-0.6-2-0.5-3c0-1.2,0.3-2.4,0.8-3.5c0.6-1.2,1.5-2.3,2.6-3.1c1.6-1.3,3-2.3,4.2-3.2c1-0.7,2-1.5,3-2.3
		c0.7-0.6,1.3-1.2,1.8-2c0.4-0.7,0.6-1.4,0.6-2.2c0.1-1.1-0.2-2.1-0.7-3c-0.4-0.6-1.1-1-1.8-1c-0.4,0-0.8,0.1-1.2,0.4
		c-0.3,0.2-0.6,0.6-0.8,0.9c-0.2,0.4-0.4,0.8-0.4,1.3c-0.1,0.5-0.1,0.9-0.1,1.4c0,0.3,0,0.7,0,1c0,0.4,0.1,0.8,0.2,1.2l-7.1,0.1
		c0-0.3-0.1-0.7-0.1-1s0-0.6,0-0.9c0-1.3,0.2-2.6,0.7-3.8c0.4-1.2,1.1-2.4,1.9-3.3c0.8-1,1.9-1.8,3-2.4c1.3-0.6,2.7-1,4.1-0.9
		c3.2-0.3,6.2,1.6,7.4,4.5c0.6,1.5,1,3,1.2,4.6C110.3,111.1,110.4,112.9,110.4,114.7z M103.5,123.4c0.1-0.5,0.2-1.1,0.3-1.8
		c0.1-0.7,0.2-1.2,0.2-2c0.1-0.8,0.1-1.7,0.2-2.7c-0.3,0.5-0.7,0.9-0.9,1.2c-0.3,0.3-0.6,0.7-0.9,0.9c-0.3,0.3-0.6,0.6-0.9,0.8
		c-0.5,0.4-0.9,0.8-1.5,1.3c-0.5,0.5-1,1-1.5,1.5c-0.4,0.5-0.8,1.1-1.1,1.7c-0.3,0.5-0.4,1.1-0.4,1.7s0.2,1.1,0.6,1.6
		c0.3,0.5,0.9,0.7,1.5,0.7c0.5,0,0.9-0.1,1.3-0.4c0.5-0.3,0.9-0.6,1.3-1c0.4-0.5,0.8-1,1.1-1.6C103.1,124.8,103.3,124.1,103.5,123.4
		z"/>
	<path class="st1" d="M144,126.1c-0.1,2.4-0.2,4.6-0.2,6.4c-0.1,1.6-0.2,3.3-0.5,4.9c-0.2,1.2-0.6,2.4-1.1,3.5
		c-0.5,0.9-1.2,1.7-2.1,2.3c-1,0.6-2.2,1.1-3.3,1.2c-1.6,0.3-3.3,0.4-5,0.4c-0.9,0-2,0-3.1-0.1c-1.2-0.1-2.4-0.2-3.6-0.5l0.2-6.8
		c1.5,0.1,2.8,0.2,4,0.2l2.9,0.2c0.9,0.1,1.7,0.1,2.4,0.1c1,0,1.9-0.7,2.2-1.7c0.6-1.5,0.9-3.2,0.8-4.8c-0.3,0.7-0.7,1.4-1.2,2
		c-0.4,0.5-0.9,0.9-1.4,1.2c-0.4,0.3-0.9,0.5-1.4,0.6c-0.4,0.1-0.8,0.2-1.3,0.2c-1.1,0-2.2-0.3-3.1-0.9c-1.2-0.8-2.1-1.9-2.8-3.2
		c-0.9-1.8-1.6-3.8-2-5.8c-0.6-2.9-0.8-5.9-0.8-8.8c0-2.4,0.2-4.8,0.7-7.2c0.4-1.8,1-3.6,1.8-5.2c0.6-1.2,1.5-2.3,2.6-3.2
		c0.9-0.7,1.9-1,3-1.1c0.5,0,1.1,0.1,1.6,0.2c0.6,0.2,1.2,0.5,1.7,0.9c0.6,0.5,1.2,1.1,1.7,1.7c0.6,0.8,1.1,1.8,1.4,2.7L138,102
		l5.5,0.3L144,126.1z M137.2,119.7c0-0.6,0-1.4,0-2.3s0-1.8-0.1-2.7c0-0.9-0.1-1.9-0.3-2.8c-0.1-0.8-0.3-1.6-0.6-2.4
		c-0.2-0.6-0.6-1.2-1-1.7c-0.4-0.4-1-0.7-1.5-0.7c-0.8,0-1.5,0.3-1.9,1c-0.5,0.8-0.8,1.6-0.9,2.5c-0.2,1.1-0.4,2.3-0.4,3.4
		c0,1.2-0.1,2.4-0.1,3.6c0,0.8,0,1.7,0,2.5s0.1,1.8,0.2,2.6c0.1,0.8,0.2,1.7,0.4,2.5c0.1,0.7,0.4,1.4,0.6,2.1c0.2,0.5,0.5,1,0.9,1.4
		c0.3,0.3,0.8,0.5,1.3,0.5c0.6,0,1.2-0.3,1.6-0.8c0.5-0.6,0.9-1.3,1.1-2.1c0.3-1,0.5-2,0.6-3C137.2,122.2,137.2,121,137.2,119.7
		L137.2,119.7z"/>
	<path class="st1" d="M166.1,115.3c-0.7,0.1-1.4,0.2-2.1,0.4c-0.6,0.1-1.3,0.3-2.1,0.5s-1.6,0.4-2.4,0.7c0.2-0.9,0.3-1.8,0.4-2.7
		c0.1-0.8,0.1-1.5,0.1-2.1c0-0.9-0.1-1.8-0.3-2.6c-0.1-0.5-0.4-1-0.7-1.4c-0.2-0.2-0.5-0.4-0.8-0.5c-0.2,0-0.3-0.1-0.5-0.1
		c-0.6,0-1.2,0.3-1.6,0.8c-0.5,0.7-0.8,1.4-0.9,2.2c-0.2,1-0.4,2-0.5,3.1c-0.1,1.2-0.1,2.3-0.1,3.6c0,0.9,0,1.7,0,2.6s0,1.7,0.1,2.6
		l0.4,12.1L148,135c0-5,0-9.4-0.1-13.4s-0.2-7.4-0.3-10.2c-0.1-3.3-0.3-6.2-0.4-8.8l6.1-0.4l0.3,3.5c0.4-1.2,1.1-2.2,1.9-3.1
		c0.6-0.7,1.4-1.3,2.2-1.7c0.6-0.3,1.3-0.6,2-0.7c0.5-0.1,0.9-0.1,1.4-0.2c1,0,1.9,0.3,2.6,1c0.7,0.7,1.2,1.6,1.5,2.6
		c0.4,1.1,0.6,2.3,0.8,3.5c0.1,1.2,0.2,2.4,0.2,3.6c0,0.9,0,1.8-0.1,2.6C166.1,113.9,166.2,114.6,166.1,115.3z"/>
	<path class="st1" d="M186.8,114.7c0,3.3,0,6.5,0,9.8s-0.1,6.6-0.2,10.2l-5.5-0.3v-4.2c-0.5,1-1.2,1.9-2.1,2.6
		c-0.7,0.5-1.4,1-2.2,1.3s-1.6,0.5-2.4,0.6c-1,0-1.9-0.2-2.8-0.7c-0.9-0.4-1.6-1-2.2-1.8c-0.7-0.8-1.2-1.6-1.5-2.6
		c-0.4-1-0.5-2-0.5-3c0-1.2,0.3-2.4,0.8-3.5c0.6-1.2,1.5-2.3,2.6-3.1c1.6-1.3,3-2.3,4.2-3.2c1-0.7,2-1.5,3-2.3
		c0.7-0.6,1.3-1.2,1.8-2c0.4-0.7,0.6-1.4,0.6-2.2c0.1-1.1-0.2-2.1-0.7-3c-0.4-0.6-1.1-1-1.8-1c-0.4,0-0.8,0.1-1.2,0.4
		c-0.3,0.2-0.6,0.6-0.8,0.9c-0.2,0.4-0.3,0.8-0.4,1.3c-0.1,0.5-0.1,0.9-0.1,1.4c0,0.3,0,0.7,0,1c0,0.4,0.1,0.8,0.2,1.2l-7.1,0.1
		c0-0.3-0.1-0.7-0.1-1s0-0.6,0-0.9c0-1.3,0.2-2.6,0.7-3.8c0.4-1.2,1.1-2.4,1.9-3.3c0.8-1,1.9-1.8,3-2.4c1.3-0.6,2.7-1,4.1-0.9
		c3.2-0.3,6.2,1.6,7.4,4.5c0.6,1.5,1,3,1.2,4.6C186.7,111.1,186.8,112.9,186.8,114.7z M179.8,123.4c0.1-0.5,0.2-1.1,0.3-1.8
		c0.1-0.7,0.2-1.2,0.2-2c0.1-0.8,0.1-1.7,0.2-2.7c-0.3,0.5-0.7,0.9-0.9,1.2c-0.3,0.3-0.6,0.7-0.9,0.9c-0.3,0.3-0.6,0.6-0.9,0.8
		c-0.5,0.4-0.9,0.8-1.5,1.3c-0.5,0.5-1,1-1.5,1.5c-0.4,0.5-0.8,1.1-1.1,1.7c-0.3,0.5-0.4,1.1-0.4,1.7s0.2,1.1,0.6,1.6
		c0.3,0.5,0.9,0.7,1.4,0.7s0.9-0.1,1.4-0.4c0.5-0.3,0.9-0.6,1.3-1c0.4-0.5,0.8-1,1.1-1.6C179.4,124.8,179.7,124.1,179.8,123.4
		L179.8,123.4z"/>
	<path class="st1" d="M202.9,134.2c0.5-3.3,0.8-6.7,0.9-10.1c0.2-3.4,0.3-7,0.3-10.7c0-1-0.1-2-0.2-3c-0.1-0.6-0.3-1.2-0.7-1.7
		c-0.2-0.3-0.5-0.6-0.9-0.8c-0.3-0.1-0.6-0.2-0.9-0.2c-0.4,0-0.8,0.1-1.2,0.2c-0.4,0.2-0.7,0.5-1,0.8c-0.4,0.5-0.7,1.1-0.9,1.7
		c-0.3,1-0.5,1.9-0.7,2.9c-0.2,1.5-0.4,2.9-0.4,4.4c-0.1,1.7-0.1,3.8-0.1,6.2v2.7c0,0.9,0,1.8,0,2.7s0,1.6,0,2.2
		c0,0.5,0,0.9,0.1,1.4l-7-0.1c0.1-1.9,0.1-3.6,0.1-5c0-1.5,0.1-2.8,0.1-4.1c0-1.2,0-2.4,0-3.5s0-2.1,0-3.2c0-1,0-1.9,0-2.9
		s0-2.1,0-3.2c0-1.2,0-2.4-0.1-3.8s-0.1-2.8-0.1-4.6l7.2-0.2l-0.1,3.1c0.5-0.9,1.1-1.8,1.8-2.5c0.6-0.6,1.2-1.1,1.9-1.5
		c0.6-0.3,1.2-0.6,1.8-0.7c0.5-0.1,1.1-0.2,1.7-0.2c1.2,0,2.3,0.4,3.1,1.3c0.9,1,1.6,2.2,2,3.5c0.5,1.6,0.9,3.3,1,5
		c0.2,1.9,0.3,3.9,0.3,5.9c0,1.5,0,3-0.1,4.5s-0.2,3-0.2,4.5c-0.1,1.5-0.2,2.9-0.3,4.3s-0.2,2.6-0.3,3.8L202.9,134.2z"/>
	<path class="st1" d="M240.1,95.3c-0.4-0.3-0.8-0.6-1.3-0.8c-0.4-0.1-0.8-0.2-1.2-0.2c-0.7,0-1.3,0.2-1.8,0.6
		c-0.5,0.5-1,1.1-1.2,1.7c-0.4,0.8-0.6,1.6-0.8,2.5c-0.2,1-0.3,2-0.4,2.9h4.8v5.7l-5.1-0.1v2.3c0,2.6-0.1,5.2-0.1,8
		c0,1.2,0,2.4,0,3.8s0,2.7,0,4.1s0,2.8,0,4.2v4.2l-6,0.2c-0.1-5.3-0.2-9.9-0.3-13.8s-0.1-7.3-0.2-10.2v-3l-2.8-0.1v-5.4h2.8
		c0-1.2,0-2.1,0.1-2.8c0-0.3,0-0.7,0-0.9c0-1.6,0.2-3.2,0.6-4.7c0.3-1.3,0.9-2.5,1.7-3.6c0.7-1,1.6-1.7,2.7-2.3
		c1.1-0.5,2.3-0.8,3.5-0.8c0.9,0,1.8,0.1,2.7,0.4c1.1,0.3,2.1,0.7,3,1.2L240.1,95.3z"/>
	<path class="st1" d="M258.4,114.7c0,3.3,0,6.5,0,9.8s-0.1,6.6-0.2,10.2l-5.4-0.3v-4.2c-0.5,1-1.2,1.9-2.1,2.6
		c-0.7,0.5-1.4,1-2.2,1.3s-1.6,0.5-2.4,0.6c-1,0-1.9-0.2-2.8-0.7c-0.9-0.4-1.6-1-2.3-1.8c-1.3-1.5-2-3.5-2-5.5
		c0-1.2,0.3-2.4,0.8-3.5c0.6-1.2,1.5-2.3,2.6-3.1c1.6-1.3,3-2.3,4.2-3.2c1.2-0.8,2.2-1.6,3-2.3c0.7-0.6,1.3-1.2,1.8-2
		c0.4-0.7,0.6-1.4,0.6-2.2c0.1-1.1-0.2-2.1-0.7-3c-0.4-0.6-1.1-1-1.8-1c-0.4,0-0.8,0.1-1.2,0.4c-0.3,0.2-0.6,0.6-0.8,0.9
		c-0.2,0.4-0.4,0.8-0.4,1.3c-0.1,0.5-0.1,0.9-0.1,1.4c0,0.3,0,0.7,0,1c0,0.4,0.1,0.8,0.2,1.2l-7.1,0.1c0-0.3-0.1-0.7-0.1-1
		s0-0.6,0-0.9c0-1.3,0.2-2.6,0.6-3.8c0.4-1.2,1.1-2.4,1.9-3.3c0.8-1,1.9-1.8,3-2.4c1.3-0.6,2.7-1,4.1-0.9c3.2-0.3,6.2,1.6,7.4,4.5
		c0.6,1.5,1,3,1.2,4.6C258.3,111.1,258.4,112.9,258.4,114.7z M251.4,123.4c0.1-0.5,0.2-1.1,0.3-1.8c0.1-0.7,0.2-1.2,0.2-2
		c0.1-0.8,0.1-1.7,0.2-2.7c-0.3,0.5-0.7,0.9-0.9,1.2c-0.3,0.3-0.6,0.7-0.9,0.9c-0.3,0.3-0.6,0.6-0.9,0.8c-0.5,0.4-0.9,0.8-1.5,1.3
		c-0.5,0.5-1,1-1.5,1.5c-0.4,0.5-0.8,1.1-1.1,1.7c-0.3,0.5-0.4,1.1-0.5,1.7c0,0.6,0.2,1.1,0.6,1.6c0.3,0.5,0.9,0.7,1.5,0.7
		c0.5,0,0.9-0.1,1.3-0.4c0.5-0.3,0.9-0.6,1.3-1c0.4-0.5,0.8-1,1.1-1.6C251,124.8,251.3,124.1,251.4,123.4z"/>
	<path class="st1" d="M281.2,114.7c-0.1,2.5-0.2,4.9-0.2,7.2c0,1-0.1,2-0.1,3.1c0,1-0.1,2.1-0.1,3.1c-0.1,1-0.1,2-0.1,2.8
		s-0.1,1.7-0.1,2.4l-6.8,0.6c0.2-2.7,0.3-5.1,0.4-7.1c0.1-2.1,0.2-3.8,0.2-5.3c0.1-1.5,0.1-2.7,0.1-3.7s0-1.8,0-2.4s0-1,0-1.3
		s0-0.5,0-0.6c0-0.9,0-1.9-0.1-2.8c-0.1-0.6-0.2-1.2-0.4-1.7c-0.1-0.3-0.3-0.6-0.6-0.8c-0.2-0.1-0.5-0.2-0.8-0.2
		c-0.4,0-0.8,0.1-1.1,0.2c-0.4,0.2-0.8,0.4-1,0.8c-0.4,0.5-0.6,1.1-0.7,1.7c-0.2,1-0.3,2-0.3,3c0,2.4,0,4.6,0,6.9c0,2.2,0,4.2,0.1,6
		c0,2.1,0,4.1,0.1,6l-7.3,0.7c0.2-2.2,0.3-4.3,0.3-6.4s0.1-4,0.1-5.7c0-3.2-0.1-6.3-0.2-9.3c-0.1-3.1-0.4-6.3-0.7-9.6
		c1.3,0,2.4-0.1,3.2-0.2c0.7,0,1.3-0.1,2-0.2c0.4,0,0.9-0.1,1.3-0.3l0.1,3.8c0.4-0.7,0.9-1.4,1.4-2s1.1-1.1,1.7-1.6
		c0.6-0.4,1.2-0.8,1.8-1c0.6-0.3,1.2-0.4,1.9-0.4c0.7,0,1.3,0,2,0.2c0.5,0.1,1,0.3,1.5,0.6c0.4,0.4,0.8,0.8,1.1,1.3
		c0.3,0.7,0.6,1.4,0.7,2.2c0.4-0.6,0.8-1.1,1.2-1.6c0.4-0.5,0.9-1,1.5-1.4c0.5-0.4,1.1-0.7,1.7-0.9c0.6-0.2,1.3-0.3,2-0.3
		c1,0,1.9,0.1,2.8,0.4c0.8,0.3,1.5,0.9,1.9,1.6c0.6,1.1,0.9,2.3,1,3.5c0.2,2,0.4,3.9,0.3,5.9c0,3.5-0.1,7.1-0.2,10.6
		c-0.2,3.5-0.3,7.2-0.5,10.9l-6.8,0.6c0.2-3.8,0.4-7,0.5-9.6s0.2-4.7,0.2-6.3c0-1.6,0-2.7,0-3.4c0-0.7,0-1.1,0-1.2
		c0-0.9,0-1.9-0.2-2.8c-0.1-0.6-0.2-1.2-0.5-1.7c-0.1-0.3-0.4-0.6-0.7-0.8c-0.3-0.1-0.6-0.2-0.9-0.2c-0.2,0-0.4,0-0.6,0
		c-0.3,0-0.5,0.1-0.7,0.3c-0.3,0.2-0.5,0.5-0.7,0.8c-0.3,0.5-0.5,1-0.7,1.5c0.1,0.9,0.1,1.7,0.1,2.5
		C281.1,113.8,281.2,114.4,281.2,114.7z"/>
	<path class="st1" d="M305.7,93.3c0,0.6-0.1,1.2-0.3,1.8c-0.2,0.5-0.5,1-0.9,1.4s-1,0.7-1.6,0.9c-0.7,0.2-1.5,0.4-2.2,0.3
		c-0.8,0-1.6-0.1-2.3-0.3c-0.6-0.2-1.1-0.5-1.5-0.9s-0.7-0.9-0.9-1.4c-0.2-0.6-0.3-1.2-0.3-1.8c0-0.6,0.1-1.2,0.3-1.7
		c0.2-0.5,0.5-1,0.9-1.4s1-0.7,1.6-0.9c0.7-0.3,1.5-0.4,2.3-0.4s1.5,0.1,2.3,0.4c0.6,0.2,1.1,0.5,1.5,0.9s0.7,0.9,0.9,1.4
		C305.6,92.1,305.7,92.7,305.7,93.3z M303.8,102.3c-0.1,1.1-0.2,2.3-0.3,3.6c-0.1,1.3-0.2,2.6-0.2,4s-0.1,2.8-0.1,4.2s0,2.8,0,4.2
		c0,1.6,0,3.2,0,4.6c0,1.5,0.1,2.8,0.1,4.1c0.1,1.3,0.1,2.4,0.2,3.3c0,0.8,0.1,1.5,0.3,2.3c-0.8,0-1.7,0-2.6,0.1s-1.6,0.1-2.6,0.2
		c-1,0.1-1.9,0.2-2.8,0.3c0.4-3.7,0.6-7.1,0.7-10.2s0.2-5.8,0.2-8.3c0-2.1,0-3.9-0.1-5.5s-0.2-2.9-0.2-4c-0.1-1.3-0.2-2.4-0.3-3.3
		c1.2,0.2,2.2,0.2,3.2,0.3c1,0,1.8,0.1,2.5,0.1h0.9c0.3,0,0.5,0,0.7,0C303.5,102.3,303.7,102.3,303.8,102.3L303.8,102.3z"/>
	<path class="st1" d="M314.4,133.5c-0.5,0-1.1,0.1-1.8,0.1l-2,0.2c-0.8,0.1-1.6,0.1-2.6,0.2c-0.2-7-0.4-13.2-0.6-18.5
		c-0.2-5.4-0.4-9.9-0.6-13.6c-0.2-4.3-0.4-8.1-0.6-11.3l8-0.4v12.6c0,3.7,0,7,0,9.9s0,5.4,0,7.6c0,2.1,0,4,0,5.5
		C314.3,129.4,314.4,132,314.4,133.5z"/>
	<path class="st1" d="M327.8,93.3c0,0.6-0.1,1.2-0.3,1.8c-0.2,0.5-0.5,1-0.9,1.4s-1,0.7-1.6,0.9c-0.7,0.2-1.5,0.4-2.2,0.3
		c-0.8,0-1.6-0.1-2.3-0.3c-0.6-0.2-1.1-0.5-1.5-0.9s-0.7-0.9-0.9-1.4c-0.2-0.6-0.3-1.2-0.3-1.8c0-0.6,0.1-1.2,0.3-1.7
		c0.2-0.5,0.5-1,0.9-1.4s1-0.7,1.6-0.9c0.7-0.3,1.5-0.4,2.3-0.4s1.5,0.1,2.3,0.4c0.6,0.2,1.1,0.5,1.5,0.9s0.7,0.9,0.9,1.4
		C327.7,92.1,327.8,92.7,327.8,93.3z M325.9,102.3c-0.1,1.1-0.2,2.3-0.3,3.6c-0.1,1.3-0.2,2.6-0.2,4s-0.1,2.8-0.1,4.2
		c0,1.4,0,2.8,0,4.2c0,1.6,0,3.2,0,4.6c0,1.5,0.1,2.8,0.1,4.1s0.1,2.4,0.2,3.3c0,0.8,0.1,1.5,0.3,2.3c-0.8,0-1.7,0-2.6,0.1
		s-1.6,0.1-2.6,0.2c-0.9,0.1-1.9,0.2-2.8,0.3c0.4-3.7,0.6-7.1,0.7-10.2s0.2-5.8,0.2-8.3c0-2.1,0-3.9-0.1-5.5s-0.2-2.9-0.2-4
		c-0.1-1.3-0.2-2.4-0.3-3.3c1.2,0.2,2.2,0.2,3.2,0.3c1,0,1.8,0.1,2.5,0.1h0.9c0.3,0,0.5,0,0.7,0
		C325.6,102.3,325.7,102.3,325.9,102.3L325.9,102.3z"/>
	<path class="st1" d="M347.7,114.7c0,3.3,0,6.5,0,9.8s-0.1,6.6-0.2,10.2l-5.4-0.3v-4.2c-0.5,1-1.2,1.9-2.1,2.6
		c-0.7,0.5-1.4,1-2.2,1.3c-0.8,0.3-1.6,0.5-2.4,0.6c-1,0-1.9-0.2-2.8-0.7c-0.9-0.4-1.6-1-2.3-1.8c-1.3-1.5-2-3.5-2-5.5
		c0-1.2,0.3-2.4,0.8-3.5c0.6-1.2,1.5-2.3,2.6-3.1c1.6-1.3,3-2.3,4.2-3.2c1-0.7,2-1.5,3-2.3c0.7-0.6,1.3-1.2,1.8-2
		c0.4-0.7,0.6-1.4,0.6-2.2c0.1-1.1-0.2-2.1-0.7-3c-0.4-0.6-1.1-1-1.8-1c-0.4,0-0.8,0.1-1.2,0.4c-0.3,0.2-0.6,0.6-0.8,0.9
		c-0.2,0.4-0.3,0.8-0.4,1.3s-0.1,0.9-0.1,1.4c0,0.3,0,0.7,0,1c0,0.4,0.1,0.8,0.2,1.2l-7.1,0.1c0-0.3-0.1-0.7-0.1-1s0-0.6,0-0.9
		c0-1.3,0.2-2.6,0.7-3.8c0.4-1.2,1.1-2.4,1.9-3.3c0.8-1,1.9-1.8,3-2.4c1.3-0.6,2.7-1,4.1-0.9c3.2-0.3,6.2,1.6,7.4,4.5
		c0.6,1.5,1,3.1,1.1,4.7C347.6,111.1,347.7,112.9,347.7,114.7z M340.7,123.4c0.1-0.5,0.2-1.1,0.3-1.8c0.1-0.7,0.2-1.2,0.2-2
		c0.1-0.8,0.1-1.7,0.2-2.7c-0.3,0.5-0.7,0.9-0.9,1.2c-0.3,0.3-0.6,0.7-0.9,0.9c-0.3,0.3-0.6,0.6-0.9,0.8c-0.5,0.4-0.9,0.8-1.5,1.3
		c-0.5,0.5-1,1-1.5,1.5c-0.4,0.5-0.8,1.1-1.1,1.7c-0.3,0.5-0.4,1.1-0.4,1.7s0.2,1.1,0.6,1.6c0.3,0.5,0.9,0.7,1.5,0.7
		c0.5,0,0.9-0.1,1.3-0.4c0.5-0.3,0.9-0.6,1.3-1c0.4-0.5,0.8-1,1.1-1.6C340.3,124.8,340.6,124.1,340.7,123.4L340.7,123.4z"/>
	<polygon class="st0" points="399.1,172.7 399.3,172.6 397.8,172.7 	"/>
	<path class="st0" d="M390,170.8c0.7,0.9,3.3,0.6,4.9,1.2l0.2,0.2l0.9-0.5C394,171.5,391.3,171.3,390,170.8z"/>
	<path class="st0" d="M385.5,168.2c0.2,0.4-1.1,0,1.1,0.3c-0.1,0-0.1-0.1-0.2-0.1C386.2,168.4,385.9,168.3,385.5,168.2z"/>
	<path class="st0" d="M386.4,168.4C387.4,168.6,385.8,168,386.4,168.4z"/>
	<path class="st0" d="M381.9,167.7h1.3c-0.2-0.2-1.4-0.5-0.9-0.5C381,167.1,381.3,167.3,381.9,167.7z"/>
	<path class="st0" d="M380.6,168.1h0.6C381.2,168,381,167.9,380.6,168.1z"/>
	<path class="st0" d="M382.7,168.1h-1.4c0.2,0.2,0.1,0.4,0.6,0C381.8,168.3,382.1,168.1,382.7,168.1z"/>
	<path class="st0" d="M383.5,168.4c0.7,0.3,1.6,0.6,0.3,0.6C386.2,169.3,385.9,168.7,383.5,168.4z"/>
	<path class="st0" d="M389.4,171.5l0.9,0.4l0.9-0.1C390.7,171.9,389.4,171.3,389.4,171.5z"/>
	<path class="st0" d="M374.1,165.8c-0.1,0.1,0.4,0.5,0.4,0.7h1C375,166.4,374.1,166.1,374.1,165.8z"/>
	<path class="st0" d="M374.5,166.6H373C374.3,166.9,374.5,166.8,374.5,166.6z"/>
	<polygon class="st0" points="380.2,168.9 382.6,168.7 379.8,168.8 	"/>
	<polygon class="st0" points="368.7,164.9 369.6,164.6 368.1,164.9 	"/>
	<path class="st0" d="M365.1,164.3c0.6-0.2-0.7-0.7-0.1-0.8c-0.9-0.1-1.8,0-2.6,0.1C363.4,163.7,364.3,163.9,365.1,164.3z"/>
	<path class="st0" d="M361.1,163.8c0.4,0,0.9-0.1,1.3-0.1C362,163.7,361.6,163.7,361.1,163.8z"/>
	<path class="st0" d="M370.6,166.1c-0.2-0.3-0.6-0.6-1-0.7l0.5,0.6L370.6,166.1z"/>
	<path class="st0" d="M370.1,166L370.1,166l-1.2-0.2L370.1,166z"/>
	<path class="st0" d="M370.8,166.1h-0.1C370.7,166.1,370.7,166.2,370.8,166.1z"/>
	<path class="st0" d="M376.6,167.7c-0.9,0.1-2.6,0.1-1,0.8C376.3,168.3,375.3,167.9,376.6,167.7z"/>
	<path class="st0" d="M371.4,166.8l1.5,0.4c0-0.1-0.2-0.4,0.2-0.4H371.4z"/>
	<polygon class="st0" points="370.6,166.8 371.4,166.8 370.8,166.7 	"/>
	<path class="st0" d="M363.6,164.7c-0.7,0.1-1.5,0-2.2-0.1c0.8,0.2,1.7,0.4,2.6,0.6C364.1,165,364.5,164.8,363.6,164.7z"/>
	<path class="st0" d="M366.8,165.3h-0.1C366.7,165.4,366.8,165.4,366.8,165.3z"/>
	<polygon class="st0" points="353.6,163.2 353.7,163.3 353.7,163.3 	"/>
	<path class="st0" d="M364.1,165.2c0.5,0.2,0.9,0.2,1.4,0.1c-0.5,0-1-0.1-1.5-0.2C363.9,165.2,363.9,165.2,364.1,165.2z"/>
	<path class="st0" d="M358.9,163.7c0.3,0.1,0.7,0.3,1.1,0.4C359.7,163.9,359,163.6,358.9,163.7z"/>
	<path class="st0" d="M366.4,165.2h0.1C366.3,165,366.4,165.1,366.4,165.2z"/>
	<path class="st0" d="M366.4,165.2c-0.3,0-0.6,0-0.9,0.1c0.4,0,0.7,0,1.1,0C366.6,165.3,366.5,165.2,366.4,165.2z"/>
	<path class="st0" d="M350.7,165.8c0.2-0.4,1.9-0.6,3.3,0.1c1.5-0.1,0.8-1.6-0.4-2.6c-0.1,0.2-0.1,0.4-1.6,0.4
		c0.5,0.3,3.2,1.1,1.9,1.2c-2-0.1-1.6-0.4-2.5-0.8c0.7,0.6-2.6,0.4-2.3,1.2h1.8C350.9,165.5,350.3,165.6,350.7,165.8z"/>
	<path class="st0" d="M356.5,163.9h0.6c-0.7-0.2-1.4-0.5-2-0.9c-1,0-1.3,0.2-1.4,0.3l3,0.6L356.5,163.9z"/>
	<path class="st0" d="M359.9,164.4c-0.6,0.4-2,0.3-1.2,1c1.8,0.3,1.3-0.2,2.4-0.2C358.1,164.8,361.9,165.1,359.9,164.4
		c0.5,0.1,1.1,0.1,1.6,0.2c-0.5-0.1-1-0.3-1.5-0.5h0.1l0,0c0.1,0.1,0.1,0.1,0,0.1H360C359.9,164.3,359.9,164.3,359.9,164.4
		c-0.9-0.3-0.1-0.2,0.1-0.2c0,0,0,0,0-0.1l0,0l-2.9-0.2C358,164.1,358.9,164.3,359.9,164.4z"/>
	<path class="st0" d="M373.9,169.2c-0.1-0.1-0.1-0.1-0.1-0.1C373.6,169.1,373.5,169.1,373.9,169.2z"/>
	<path class="st0" d="M372.7,168.7c0.4-0.1,0.7-0.1,1.1,0c0.6,0.3,0,0.2,0,0.4c0.4,0,1.5-0.1,0.3-0.5h-0.2c-1.1-0.4-2.5-1.2-2.3-1.2
		C371.8,167.9,372.2,168.3,372.7,168.7z"/>
	<path class="st0" d="M366.3,166.6l-2.4-0.2l1.1,0.6v-0.3C366.3,167.1,366,166.8,366.3,166.6z"/>
	<polygon class="st0" points="353.4,163 353.7,162.5 352.2,163 	"/>
	<polygon class="st0" points="350.2,162.5 350.4,162.1 349.5,162.3 	"/>
	<path class="st0" d="M172.6,157.4l-0.7,0.1C172.1,157.5,172.3,157.4,172.6,157.4z"/>
	<path class="st0" d="M177.7,157.2l0.1-0.2C177.6,157.1,177.5,157.2,177.7,157.2z"/>
	<path class="st0" d="M258.4,150.4c-0.9-0.4-2-1.1-1.9-0.6l0.3,0.5C257.4,150.1,257.9,150.2,258.4,150.4z"/>
	<path class="st0" d="M208.2,150.9l0.3,0.1l0.7-0.4L208.2,150.9z"/>
	<path class="st0" d="M207.5,152.7l-1.3-0.3C206.6,152.5,207,152.6,207.5,152.7z"/>
	<path class="st0" d="M144.5,159.4l-0.8,0.5C145,159.8,144.4,159.6,144.5,159.4z"/>
	<path class="st0" d="M318.1,158.3c-0.7-0.3-1.4-0.4-2.2-0.6C317,158.1,317.8,158.6,318.1,158.3z"/>
	<path class="st0" d="M165.2,148.9c-0.4,0.1-0.6,0.2-0.6,0.3C165,149.1,165.3,149,165.2,148.9z"/>
	<path class="st0" d="M313.3,157.4l0.5,0.2c0.7,0,1.4,0,2.1,0.1C315.1,157.3,314.2,157.2,313.3,157.4z"/>
	<path class="st0" d="M43.4,171.5h-0.2C43.2,171.6,43.3,171.6,43.4,171.5z"/>
	<path class="st0" d="M337.7,160.5C338.3,160.5,337.8,160.5,337.7,160.5z"/>
	<path class="st0" d="M340.6,162.8c-0.1,0-0.3,0.1-0.3,0.2C340.4,162.8,340.5,162.8,340.6,162.8z"/>
	<path class="st0" d="M306.4,159.6L306.4,159.6C306.5,159.7,306.5,159.7,306.4,159.6z"/>
	<path class="st0" d="M338.6,160.8c-0.3-0.1-0.5-0.2-0.8-0.3C338.1,160.7,338.3,160.7,338.6,160.8z"/>
	<path class="st0" d="M338.5,160.6l0.6,0.1C339.2,160.6,339.1,160.6,338.5,160.6z"/>
	<path class="st0" d="M336.7,160.4c0.4,0,0.7,0.1,1.1,0.2c-0.1,0-0.2-0.1-0.1-0.1L336.7,160.4z"/>
	<path class="st0" d="M97.3,162.2c0,0-0.1,0-0.2,0C96.5,162.4,96.8,162.3,97.3,162.2z"/>
	<path class="st0" d="M255.4,157.6L255.4,157.6L255.4,157.6L255.4,157.6z"/>
	<path class="st0" d="M239.4,154.2c0.7-0.4,1.5-0.5,2.3-0.3l-0.7-1.3L239.4,154.2z"/>
	<path class="st0" d="M151.8,154.4l1.6,0.3c-1.9,0.7-3.3,0.6-1.8,1.1c0.2-1.4,6.2-0.4,6.3-1.8l1.1,0.2c-0.3,0-0.3,0.1-0.6,0.1
		c2.1,0.6,1.5-1.1,4.1-1c0.9,0.1,1.6,0.2,0.9,0.4c0.7-0.2,1.4-0.3,2-0.4c0.6,0,0.5,0.3-0.1,0.2l3.1-0.2l0,0c0.6-0.3,1.2-0.5,1.9-0.8
		c0.8,0.2-0.4,0.2-0.2,0.3l1.7-0.4c0.7,0.3-0.7,0.7-1.9,0.7c1.7,1.3,1.4-0.4,4.9,0.3l-1.6,0.2c1.1,0.8,2.3,0.4,4.2,0.9
		c-0.4-0.2-3.7-1.1-1.9-1.5c0.7,0.1,1.5,0.1,2.2-0.2c0,0.5,1,0.4,2.2,0.3l-0.1,0.7c1.3-0.2,1.2-0.5,2-0.8c0.8-0.1,1.7,0.3,2.2,0.9
		c2.4,0.1-1.7-0.8,1.2-0.9c1.9,0.1,3.9,0,5.7-0.5c1.4,0.2-0.2,0.4,0.3,0.6l1.2-0.5c0.3,0,0.2,0.2,0.2,0.3c1-0.2,0.1-0.7,1.7-0.8
		c0.4-0.7,3.3,1.1,5.3,0.3c0.5,0.2-0.2,0.4-0.1,0.7c1.6-0.2,3.1-0.6,4.6-1.1l1.9,0.4c-1.4-0.5,0.4-1.1,2-1.5
		c-0.4-0.2-0.8-0.4-1.2-0.6l2.6-0.3c0.3,0.1,0,0.3-0.4,0.6l0.5-0.2c0.9,0.3,0.4,0.6-0.2,0.9l-0.9-0.4c-0.6,0.4-1.2,0.8-1.1,1.2
		c0.3-0.1,0.5-0.1,0.8-0.2c-0.2,0.1-0.3,0.2-0.2,0.3s0.3-0.1,0.8-0.2l0.6,0.7l0.1-0.3l3.3,0.5c2.4-0.7,4.5-1.7,8.3-1.9
		c-0.9,0.5-0.2,0.9-0.3,1.5c-1-0.7-2.9,0.2-4.9,0c1,0.1,0.8,0.4,0.5,0.5l3.5-0.5c-0.1,0.5,0.7,0.4,1.6,0.7c-0.7-1,2.6-0.6,4-0.9
		c0.1,0.3-0.3,0.7-2,0.5c1.9,0.8,2.5-1.1,4.4-0.4c-0.4,0-0.7-0.1-0.8,0.1c1-0.3,3.4,0.1,2.8,0.3h-0.4c2.8,0.2,8.5,0.4,9-0.5
		c-0.1,0.4-0.3,0.8-0.6,1.2l5.2-2.7c-0.5,0.7,1.1,2.6-1.2,2.9c0.9,0.2,1.9,0.3,2.9,0.1c-0.4-0.1-1.1-1.1-0.4-1.2
		c1,0.6,2.1,1,3.2,1.3c-0.7-0.2,0.2-1.3,1.2-1.2c-0.2,0.2,0,1.2-0.4,1.3l2.8-0.9c-0.7,0.2-0.2,0.9,0.4,1.3c-0.3-0.2,2.3,0.2,3,0.1
		l-1.1-0.3c3,0.4,3.1-1.4,6.1-1.2c-0.4,0.2-1,1.4,0.5,1.7c0.7-0.6,3.3-2.6,6-2.8l0.5,0.4l2.1-0.2c-2.3,1.2-4.6,2.2-7,2.9
		c1.1,0.4,0.3,0.4,2,0.5c0.6,0.4-0.9,0.4-1.5,0.4l3.9,0.5c-0.1-0.7,3.1-0.4,3-1l-4.3,0.4c-0.1-0.7,2.6-1.7,5.4-1.4
		c0.7,0.3-0.6,1.2-0.6,1.4c1-0.2,2-0.2,2.9,0l-1.2,0.3c1.5,0.4,2.6-0.7,4.4,0.1c0.6,0.1,1.8,1.1,2,0.7c-0.9-0.9-0.9-3.3-0.2-3.8
		c1.4,0.4,2.7,0.9,4,1.5c1,0.7-1.7,1.3-0.9,1.9c0.1-0.2,0.7-0.4,0.9-0.4c0.7,0.2-0.3,0.5,1.1,0.6c0.3-0.7,3,0.3,0.8-0.5
		c1.5-0.1,1.5,0.3,3.2,0.4c-0.5-0.5,1.7-1.4,3.1-1.4c-0.1,0.2,0.2,0.4,0.3,0.6c2.9,0.4,4.5,0.9,7.2,1.2c0.2,0.2,1.5,0.5,0.9,0.8
		c0.5-0.2,1.1-0.2,1.7-0.2c1.6,0.8-1.9-0.2-0.7,0.7c0.2-0.4,2.2-0.3,3.5-0.4c-0.3-0.7-2.8-0.5-4-0.4c0.1-0.9,2.3-1.5,5.2-1.5
		c2.3,0.1,0.9,0.7,1.3,0.6c4.3,0.7,3.8-1,7.3,0c1.3,0.7-0.1,1.1,0.2,1.5c-1.9-0.1-2.8-0.7-4.1-0.9l1.5,0.5c-0.8,0.1-1.7,0.1-2.5-0.2
		c1.4,0.5,2.9,0.7,4.4,0.9c2,0.3,4,0.6,6,1.1c0.6-0.1,1.6-0.2,1.2-0.4l-1-0.1c-0.9-0.6,2.1-0.3,0.8-0.7c1.7-0.3,3.4-0.2,5.1,0.2
		l0.3,0.7c0-0.2-1.2-0.6-1.8-0.5c0.9-0.2,2.9,1.3,3.9,0.6l-1.3-0.6c1.5-0.1,3.3-0.5,5,0c-0.7-0.7-0.4,0-1.5-0.9
		c0.9,1.1-4.5-0.7-2.9,0.5c-1.1-1-2.1-0.7-3.7-1.6c0,0.2,0.5,0.5-0.9,0.2c-0.1,0.1-0.2,0.1-0.3,0.1h-0.1h0.1c-0.1,0-0.1,0,0,0
		c0.3,0.1,0.5,0.2,0.7,0.4c-0.8,0.4-3.1,0-4,0.2c-0.9-0.2,0.4-0.2,0-0.5l-1.2,0.2c-0.1-0.5-2.2-1.1-0.1-1.1l-1.8-0.3
		c-1.1-0.4-2.3-0.7-3.5-0.7c-0.9-0.2-2.3,0.2-1.5,0l-2.9-0.1V155c-2.8-0.4-6,0-9.2-1.2c-1.2,0-2.4,0-3.6-0.3l-0.3-0.4
		c-1.3,0-3.7-0.8-4.3-0.5c-1.2-1.2-6-0.8-8.2-1.2l-0.1,0.5c-1.6-0.2-3.2-0.2-4.8-0.1l0.1,0.5c-1.6,0.2-4.1-0.7-6.7-0.9
		c0.2-0.2,0.8-0.1,1.3,0.1c-3-1.3-6.5,0.2-9.2-0.8c-0.6,0.1-1.1,0.1-1.7-0.1h0.2h-0.3l-0.9-0.3c0.3,0.1,0.5,0.2,0.8,0.3
		c-0.7,0-1.4,0-2.1,0l-0.3-0.5h-0.2c-0.8-0.2-0.6,0.2-0.3,0.6c-0.4,0-0.7,0.1-1.1,0.2c-0.6-0.8-2.1,0.1-2.9-0.8
		c-0.6,0.4-4,0-4.5,0.9c0-0.1-0.2-0.2,0.2-0.2c-0.8-0.2-1.7-0.2-2.6-0.1l-0.3-0.6l-2,0.7c-1.2-0.4-1.6-0.7-0.4-1.1
		c-2.8,0.6-2.3,0.2-4.7,0.8l0.1-0.4c-0.9,0-2.2,0.4-2.7,0.1c-1.9-0.9-9.5-0.5-14.3-1.4c0.9,1.2-2.3-0.6-2.5,0.3
		c-0.3-0.3-0.9-0.5-0.2-0.7c-2.5,0.2-3.8-0.5-5.5,0.2c-0.3-0.3,0.5-0.4,0.3-0.6c-0.2,0.1-0.8,0.2-1.1,0.1s0.4-0.2,0.8-0.3
		c-2.6,0-2.8,0.9-3,1.7c-0.9-0.4-2-0.4-2.8,0.2c-0.4-0.3-1.2-0.6,0.4-0.6c-0.9-0.1-5.5-0.4-5.5,0.2c-0.5-0.1-1-0.1-1.5,0
		c-2,0-2.2-0.1-4.1,0l0.5,0.1c-0.8,0.8-1.6,0.2-3.2,0.3v-0.1c-3.6-0.6-1.6,0.3-5.2-0.3l0.2,0.5c-0.3,1.1-3.2-0.6-5.3-0.2l0.8,0.3
		c-1.1,0.4-3.2-1.4-4.3-1.5c-0.2-0.1,0.4-0.2,0.7-0.2c-3-0.6-0.4,0.7-2.6,0.8c-0.4-0.3,0.5-0.9-1-0.9c-0.8-0.3-4.3,1.3-6.4,0.6
		c0.5,0.3,0.9,0.5-0.1,0.7c-1.6,0.1-4.3-0.9-5.7,0c-0.2-0.1-0.3-0.1-0.3-0.2c-1.2,0.3-3.9,0.5-4.6,1c-1.2-1.7-7.5,1.2-7.6-0.4
		c-1.2,0.1-2.5,0.2-3.7,0.3l0.1-0.2c-1.4-0.1-2.8,0.2-4,0.9c-0.6-0.1-0.2-0.2-0.1-0.3c-3.5-0.1-3.8,0-6.7,0.9l-0.3-0.5
		c-0.8,0.4-5.1-0.4-8.4,0.4c0-0.1,0.1-0.2,0.3-0.3c-3.8,0.8-9.3-0.7-10.5,1.3l-2.5,0.7c3.3-0.1-0.4,0.9,0.9,1
		c-1.3,0.2-3.4-0.3-1.8-0.5l0.3,0.1c0.5-1-4.1,0-4.1-0.6c-3.2,0.3-6.4,0.6-9.5,0.7c-3.1,0.2-6.2,0.4-9.2,0.8l0.8,0.7l-2.1,0.2
		c-0.6-0.1-0.8-0.5,0.7-0.6c-0.8-0.3-2.5,0.6-2.5,0.8c-3,0,1-1,0.1-0.9l-1.2,0.2l0.3,0.1c-0.8,0.6-1.8,0.9-2.8,0.9
		c-1.2,0-0.6-0.4-1.1-0.3c0-0.1-0.2-0.1-0.7,0.1l-2.6,0.3l1.1,0.4c-1.1,0.4-2.5,0.3-1.2,0.8c-1.9-0.8-9.9,0.9-11,0.8
		c-1.7,0.6-3.4,1-5.2,1.1c0.5,0,0.9,0.7-0.8,0.8c0.4-1.5-3.2-0.1-4.8-0.9c1.3,0.5-4.9,0.9-2.8,1.5c-1.4,0.1-0.2-0.5-1.3-0.6
		c-3.3,1.1-7.6,0.9-11.8,1.8c0,0.2,0.7,0.3-0.1,0.8L42,162c-0.8,0.2-0.6,1.2-2.2,0.8c0.2,0.1,0.6,0.3,0.1,0.4
		c-8.4,0.6-16.6,3.9-25.3,4c1.2,0.1,0.5,0.3-0.4,0.5c0.6,0,0.1,0.4,0.2,0.7l-3.6,0.1c-0.5,0.8-3.7,0.9-3.9,1.6l1.2-0.3
		c-1.3,1.1,2.4,1.2,2.4,2.2c1.5-1.2,4.6,0.3,7-1.5c0.6,0.1-0.4,0.4-0.1,0.6c0.6-0.6,1.4-0.8,3-0.9l-0.2,0.1c4.3-0.9,6.2-0.9,11-1.6
		l-0.5-0.4c0.6-0.1,1.2-0.1,1.8,0c1-0.9-2.9,0.5-2-0.5c0.8,0.3,2.6,0,4.4-0.3c1.8-0.3,3.5-0.6,4.1-0.1c1.6-0.3-0.6-0.5,1-0.7
		l0.5,0.2l0.3-0.5c1.1-0.1,1.7,0.1,1.7,0.4c-0.3,0.1-0.6,0.2-0.9,0.3c1.4,0.1,3.8-0.8,4.3-0.8l-1.6,0.1c4.3-1,9.7-1.6,13.8-2.8
		l-0.4-0.2c3.2-0.9,2.6-0.2,6.1-0.9l-0.1,0.1c0.8-0.4,1.7-0.6,2.6-0.7c-0.9,0.4,1.8,0.3,0.6,0.7c3.4-0.9,1.7-0.6,3.9-1.8l0.6,0.3
		c0.7-0.6,1.6-0.9,2.5-1c-1.4,0.5,1.2,0.4-0.4,1.1c3.8,0.3,5.4-1.6,7.3-0.6c1.6-1.3-3.3-0.2-2.4-0.5c-0.9-0.2,1.3-0.9,2.5-1
		s2.2,1.1,5.2,0.7c-0.3,0-0.3,0.1-0.6,0.2c1.2,0.1,2.1-0.6,3.6-0.4c0.7-0.7,1.8-0.2,1.9-1c-0.9,0.2-1.8,0.3-2.7,0.5
		c1.5-0.4,2.8-1.5,5.5-1.4c-0.4,0.3-0.9,0.5-1.4,0.7c0.8,0.2,1.4-0.3,2.2-0.2c-0.1,0.8-3.3,0.6-4.9,1.4c0.9,0.3,3.1-0.9,2.4,0
		c1.1-1.2,3-0.2,4.9-1.3l-0.1,0.5c0.5-0.2,1-0.4,1.5-0.5l-1,0.8c1.6-0.7,3.2,0.1,4.7-0.4c-3.3,0.4-0.8-0.5-2.2-0.7
		c4-1.1,2.5,1,7,0.3c-0.6,0.1-2.4-0.1-1.4-0.4c0.9,0,1.7,0.1,2.6,0.3c3-0.4-0.5-0.5,0.7-0.9c1.1,0.5,1.5-0.4,2.8-0.7l0.1,0.5
		c3.5,0,0.8-1.1,4-1l-1.2,0.8l1.6-0.3l-0.3,0.6c1.3-0.5,2.7-0.6,4-0.5c-0.4-0.3,0.2-0.9,1.7-1.1c1.1,0.2-0.5,0.5,1.6,0.3
		c-0.5,0.5-1.3,0.7-1.9,0.4c-0.1,0.2-0.5,0.4-0.5,0.5c1.2,0.1,2.4,0,3.6-0.2c-0.3,0-0.6,0-0.9,0l3.1-0.9c0.5,0.2,0.1,0.3-0.2,0.5
		c0.6-0.1,1-0.4,2-0.5c-0.2,0.4-0.1,0.8-1.4,1.1l3-0.7c0.2,0.2,1.6,0.4,1.2,0.5c1.7,0.1,4-1.1,6.2-0.9c0.2-0.1,0.5-0.2,0.8-0.3
		c2.1,0,3.9,0.3,6.4-0.3l1.4,0.6c1.9-0.3-1.9-0.8,1.2-1.3c2.2-0.4,0.9,0.6,1.7,0.7c1.6-0.8,3.4-1.1,5.1-0.8
		C153,154.3,152.4,154.4,151.8,154.4z M175.5,153.2c-0.5,0.1-1.4,0.5-1.7,0.2C174.3,152.8,174.7,153,175.5,153.2z M211.7,151.9
		c-0.5,0.1-1,0.1-1.5-0.1C210.7,151.7,211.2,151.8,211.7,151.9z M312.5,156.1L312.5,156.1C311.5,155.7,311.8,155.9,312.5,156.1
		L312.5,156.1z M314.6,156.6c0.2,0,0.2-0.1,0.1-0.2c-0.4,0.1-0.8,0.1-1.2-0.1C313.7,156.5,314,156.6,314.6,156.6L314.6,156.6z
		 M85.2,155.8l0.4,0.1C84.7,156.1,84.9,156,85.2,155.8L85.2,155.8z"/>
	<path class="st0" d="M207.6,152.5c-0.1-0.1-0.2-0.2-0.2-0.3C207.2,152.3,207.2,152.4,207.6,152.5z"/>
	<path class="st0" d="M144.7,159.3L144.7,159.3c-0.1,0-0.1,0.1-0.2,0.1L144.7,159.3z"/>
	<path class="st0" d="M297.3,160.7c-0.3-0.1-0.6-0.2-0.9-0.4C296.3,160.5,296.5,160.6,297.3,160.7z"/>
	<path class="st0" d="M344.6,161.2l-1.5-0.1c0.4,0,0.9,0.2,1.3,0.4C344.4,161.4,344.1,161.2,344.6,161.2z"/>
	<path class="st0" d="M356.5,166.4c0.2,0,0.5,0.1,0.7,0v-0.3C356.3,166,355.6,166.1,356.5,166.4z"/>
	<path class="st0" d="M345.6,163.2c0,0.5,1,0.4,2,0.5c-0.1,0-0.1,0-0.2,0C347.8,163.1,346.7,163.1,345.6,163.2z"/>
	<path class="st0" d="M347.9,163.7c0.3,0,0.6,0.1,0.9,0.1C348.9,163.6,348.4,163.7,347.9,163.7z"/>
	<path class="st0" d="M335.4,160.5c0.5,0.2,0.4-0.5,0.6-0.3C336.7,159.7,332.8,160.5,335.4,160.5z"/>
	<polygon class="st0" points="346.2,164.7 346,164.1 345.3,164.5 	"/>
	<path class="st0" d="M338.4,163.1l1.6,0.4c0-0.1,0.2-0.1,0.5-0.1C339.4,163.2,338.3,163,338.4,163.1z"/>
	<path class="st0" d="M340.4,163.4c0.4,0.1,0.9,0.1,1.3,0.1C341.3,163.4,340.8,163.4,340.4,163.4z"/>
	<polygon class="st0" points="344,164.5 343.5,164.4 342.4,164.1 	"/>
	<path class="st0" d="M321.1,160.7l-1.8-0.1c-0.2,0.2,0.3,0.3,0.9,0.4C320.7,160.9,321.3,160.9,321.1,160.7z"/>
	<path class="st0" d="M326.3,162.9c-0.3-0.1-0.5-0.3-0.7-0.5l-0.1,0.7L326.3,162.9z"/>
	<path class="st0" d="M321.1,162.4c-0.2,0.2-2.6,0.2-0.4,0.4C320.9,162.7,322.7,162.7,321.1,162.4z"/>
	<polygon class="st0" points="294.7,158.6 295.1,158.7 295.2,157.5 	"/>
	<path class="st0" d="M271.1,159.3c2.1,0.4,0.5-0.6,2.4-0.2c0.5-0.2-1.5-0.4-1-0.6C271.2,158.8,270.5,158.6,271.1,159.3z"/>
	<path class="st0" d="M272.5,158.6c0.2,0,0.4-0.1,0.6-0.1C272.9,158.5,272.7,158.5,272.5,158.6z"/>
	<path class="st0" d="M189.1,158.1l0.1-0.2c-0.2-0.2-0.5-0.2-1.2-0.2L189.1,158.1z"/>
	<polygon class="st0" points="170.9,158.1 171.2,158.1 170.6,157.5 	"/>
	<path class="st0" d="M155.7,159.7c0.6,0,1.4-0.2,2-0.2C156.3,159.7,155.4,158.9,155.7,159.7z"/>
	<path class="st1" d="M50.1,64c0.1-3.1,0.1-6.3,0.2-9.5c0-1.4,0-2.8,0.1-4.3c0-1.5,0.1-3.1,0.1-4.6c0-1.6,0-3.1,0-4.7s0-3.1,0-4.5
		c0-1,0-1.9,0-2.7s0-1.7-0.1-2.5c-0.2,1.5-0.6,3.4-0.9,5.8c-0.4,2.4-0.8,5-1.2,7.8c-0.4,2.9-0.8,5.9-1.2,9.1s-0.7,6.4-1.1,9.5
		l-5.8-0.2c-0.5-3.2-1-6.3-1.4-9.4c-0.5-3.1-0.9-6-1.3-8.7c-0.4-2.8-0.8-5.3-1.1-7.7s-0.6-4.4-0.9-6.2v10.6c0,2.2,0,4.4,0,6.6
		c0,2.2,0,4.3,0.1,6.3c0,2,0.1,3.7,0.1,5.3c0.1,1.6,0.1,2.8,0.2,3.7l-8.3,0.5c0.3-1.7,0.6-3.7,0.7-5.8c0.2-2.2,0.3-4.4,0.5-6.8
		c0.1-2.4,0.2-4.8,0.2-7.2s0.1-4.8,0.1-7.1c0-2.4,0-4.6,0-6.6c0-2.1-0.1-3.9-0.1-5.4c0-1.7,0-3.3,0-4.8c0.7,0.1,1.3,0.2,2,0.3
		c0.7,0.1,1.4,0.1,2.1,0.2c0.7,0,1.4,0.1,2,0.1s1.2,0,1.8,0c0.3,0,0.7,0,1,0s0.6,0,0.8,0s0.5,0,0.6,0c1,6.7,1.8,12.4,2.5,17.1
		c0.7,4.6,1.2,8.2,1.6,10.6c0.2-1.5,0.4-3.1,0.7-4.8c0.2-1.6,0.4-3.3,0.6-4.9c0.2-1.6,0.4-3.2,0.5-4.7c0.2-1.5,0.3-3,0.4-4.3
		c0.3-3.2,0.5-6.3,0.8-9.3c0.4,0,0.9,0.1,1.5,0.1c0.5,0,1,0.1,1.7,0.1c0.6,0,1.3,0,2.1,0s1.6,0,2.5,0s1.8-0.1,2.8-0.2
		c-0.2,7.6-0.4,14.2-0.4,19.7c0,4.1,0,7.6,0.1,10.5s0.2,5.4,0.3,7.3c0.1,2.3,0.3,4.2,0.5,5.7H50.1z"/>
	<path class="st1" d="M78.9,44.6c0,3.2,0,6.4,0,9.6c0,3.2-0.1,6.6-0.2,10l-5.3-0.3v-4.1c-0.6,1.1-1.3,1.9-2.1,2.5
		c-0.8,0.6-1.5,1-2.2,1.3c-0.8,0.3-1.6,0.5-2.4,0.5c-1,0-1.9-0.2-2.7-0.7c-0.9-0.4-1.6-1-2.2-1.8c-0.6-0.7-1.1-1.6-1.5-2.5
		s-0.5-1.9-0.5-2.9c0-1.2,0.2-2.3,0.7-3.4c0.5-1.1,1.3-2.1,2.5-3.1c1.6-1.2,3-2.3,4.2-3.1s2.2-1.6,2.9-2.3c0.8-0.7,1.4-1.3,1.7-2
		c0.4-0.6,0.6-1.3,0.6-2.1c0-1.3-0.2-2.3-0.7-3c-0.4-0.7-1-1-1.8-1c-0.4,0-0.8,0.1-1.1,0.4c-0.3,0.2-0.6,0.5-0.8,0.9
		c-0.2,0.4-0.3,0.8-0.4,1.2c-0.1,0.5-0.1,0.9-0.1,1.4c0,0.3,0,0.6,0,1s0.1,0.8,0.2,1.2l-7,0.1c0-0.3-0.1-0.7-0.1-1s0-0.6,0-0.9
		c0-1.3,0.2-2.5,0.6-3.7c0.4-1.2,1.1-2.3,1.9-3.3c0.8-1,1.8-1.7,3-2.3s2.5-0.9,4.1-0.9c2,0,3.5,0.4,4.7,1.2c1.1,0.8,2,1.9,2.6,3.2
		s1,2.9,1.2,4.6C78.8,41.1,78.9,42.8,78.9,44.6z M72.1,53.2c0.1-0.5,0.2-1.1,0.3-1.7c0.1-0.5,0.2-1.2,0.2-2c0.1-0.8,0.1-1.7,0.2-2.6
		c-0.3,0.4-0.6,0.8-0.9,1.2c-0.3,0.3-0.6,0.7-0.9,0.9c-0.3,0.3-0.6,0.6-0.9,0.8c-0.5,0.4-1,0.8-1.5,1.3s-1,1-1.4,1.5
		s-0.8,1.1-1.1,1.6c-0.3,0.6-0.4,1.1-0.4,1.6c0,0.6,0.2,1.1,0.6,1.6s0.9,0.7,1.4,0.7c0.4,0,0.9-0.1,1.3-0.4c0.5-0.2,0.9-0.6,1.3-1
		s0.8-1,1.1-1.6C71.7,54.5,71.9,53.9,72.1,53.2z M75.5,16.3c0.5,0.4,1.1,0.8,1.6,1.2c0.6,0.4,1.1,0.8,1.6,1.2
		c0.6,0.4,1.1,0.9,1.7,1.4l-8,8.7l-2.9-2.1L75.5,16.3z"/>
	<path class="st1" d="M96.8,54.9c0,1.8-0.3,3.3-0.9,4.5s-1.4,2.2-2.3,2.9s-1.9,1.3-3,1.6c-1.1,0.3-2.1,0.5-3,0.5
		c-0.7,0-1.4-0.1-2.1-0.2c-0.6-0.1-1.2-0.3-1.9-0.6c-0.7-0.3-1.3-0.6-1.8-1.1l0.2-6.9c0.7,0.6,1.5,1,2.2,1.4
		c0.8,0.3,1.4,0.6,2.1,0.7c0.7,0.2,1.4,0.3,2.1,0.3c0.6-0.3,1-0.7,1.3-1.3s0.5-1.2,0.5-1.9c0-0.6-0.1-1.2-0.4-1.9s-0.7-1.3-1.3-1.9
		c-0.6-0.6-1.2-1.3-2-2.1s-1.5-1.7-2.3-2.7c-0.7-1-1.3-2.1-1.8-3.4c-0.5-1.2-0.7-2.6-0.7-4.1c0-1.4,0.2-2.8,0.6-3.9
		c0.4-1.2,1-2.2,1.7-3.1s1.6-1.5,2.6-2s2.1-0.7,3.3-0.7c1,0,2,0.1,3.2,0.4c1.1,0.3,2.3,0.8,3.6,1.4L96.3,38
		c-0.5-0.5-1.1-0.8-1.7-1.1s-1.1-0.5-1.6-0.7c-0.6-0.2-1.2-0.3-1.7-0.4c-0.8,0.1-1.4,0.5-2,1.2c-0.5,0.7-0.8,1.5-0.8,2.5
		s0.2,1.8,0.6,2.5s0.9,1.4,1.5,2s1.3,1.3,2,1.9c0.7,0.6,1.4,1.4,2,2.2s1.1,1.7,1.6,2.8C96.5,52.1,96.8,53.4,96.8,54.9z"/>
	<path class="st1" d="M122.3,74.3l0.2-13c-0.5,0.8-1.1,1.4-1.8,1.9c-0.6,0.4-1.2,0.8-1.7,1c-0.6,0.2-1.2,0.4-1.9,0.4c-1,0-2-0.3-3-1
		c-1-0.6-1.8-1.6-2.5-2.9c-0.7-1.3-1.3-3-1.8-4.9c-0.4-2-0.7-4.3-0.7-7c0-3.4,0.2-6.2,0.7-8.6s1.1-4.2,1.9-5.7s1.7-2.5,2.7-3.2
		s2-1,3-1c0.7,0,1.3,0.1,1.9,0.3c0.5,0.2,1,0.5,1.5,0.9c0.4,0.4,0.8,0.8,1.1,1.3c0.3,0.5,0.6,1.1,0.9,1.7v-3l5.4,0.1l0.8,42.9
		L122.3,74.3z M122.5,47.4c0-0.3,0-0.8,0-1.4s0-1.4-0.1-2.2s-0.2-1.7-0.3-2.5c-0.1-0.9-0.3-1.7-0.6-2.4c-0.3-0.7-0.6-1.3-1-1.8
		s-0.9-0.7-1.4-0.7c-0.6,0-1.2,0.3-1.6,0.9s-0.8,1.4-1.1,2.4c-0.3,1-0.5,2.1-0.6,3.3s-0.2,2.4-0.2,3.6c0,1.1,0,2.4,0,3.7
		s0.1,2.5,0.3,3.6c0.2,1.1,0.5,2,0.9,2.8c0.4,0.7,1.1,1.1,1.9,1.1c0.6,0,1-0.2,1.4-0.5s0.7-0.7,1-1.3s0.5-1.2,0.6-1.9
		s0.3-1.4,0.3-2.2c0.1-0.8,0.1-1.5,0.2-2.3C122.5,48.8,122.5,48.1,122.5,47.4z"/>
	<path class="st1" d="M151.6,33.9c-0.2,3.3-0.3,6.5-0.3,9.7c-0.1,3.2-0.1,6.4-0.1,9.6c0,1.9,0,3.8,0,5.7s0,3.8,0.1,5.7l-6.1,0.2V61
		c-0.6,1-1.3,1.8-2,2.3c-0.8,0.5-1.5,0.9-2.1,1.1c-0.7,0.2-1.3,0.4-1.8,0.4s-0.8,0-0.9,0c-1.3-0.3-2.3-0.8-3.2-1.7
		c-0.8-0.9-1.5-1.9-2-3.2s-0.8-2.7-1.1-4.4s-0.3-3.3-0.3-5.1c0-1.5,0.1-3.1,0.2-4.7c0.1-1.6,0.3-3.2,0.5-4.7
		c0.2-1.6,0.4-3.1,0.6-4.5c0.2-1.5,0.4-2.8,0.7-4.1l6.6,0.1c-0.2,1.2-0.4,2.5-0.6,3.9s-0.4,2.8-0.5,4.3s-0.3,2.9-0.4,4.4
		c-0.1,1.5-0.1,2.9-0.1,4.2c0,1.2,0.1,2.4,0.2,3.4s0.3,2,0.5,2.8s0.5,1.4,0.9,1.8c0.4,0.4,0.8,0.7,1.3,0.7c0.7,0,1.3-0.4,1.7-1.2
		s0.8-1.9,1.1-3.3c0.3-1.4,0.4-2.9,0.5-4.6c0.1-1.7,0.1-3.4,0.1-5.1c0-1.3,0-2.5-0.1-3.7c0-1.2-0.1-2.2-0.1-3.1
		c-0.1-1.1-0.1-2-0.2-3L151.6,33.9z"/>
	<path class="st1" d="M172.4,63.1c-1.9,0.7-3.6,1.1-5.2,1.3c-1.6,0.2-2.8,0.3-3.8,0.3c-1.2,0-2.3-0.2-3.3-0.7
		c-0.9-0.5-1.7-1.1-2.4-2c-0.7-0.8-1.2-1.8-1.7-2.8c-0.4-1.1-0.8-2.2-1.1-3.4s-0.5-2.4-0.6-3.6s-0.2-2.4-0.2-3.4
		c0-2.7,0.2-5.2,0.6-7.4c0.4-2.3,1-4.2,1.9-5.9s1.8-2.9,3-3.9c1.2-0.9,2.6-1.4,4.1-1.4c1.3,0,2.4,0.3,3.4,0.9s1.9,1.6,2.7,2.9
		c0.7,1.3,1.3,3,1.7,5s0.6,4.4,0.6,7.1c0,0.8,0,1.6,0,2.3c0,0.8-0.1,1.6-0.2,2.5l-10.8,1.4c0.1,0.8,0.2,1.5,0.4,2.1
		c0.2,0.7,0.4,1.3,0.7,1.8s0.6,0.9,1.1,1.2s0.9,0.5,1.5,0.5c1.1,0,2.2-0.1,3.3-0.2c1.1-0.1,2.2-0.3,3.4-0.5L172.4,63.1z M161,47.3
		l5.1-0.9v-1.2c0-1.7-0.1-3.1-0.4-4c-0.3-0.9-0.5-1.6-0.9-2.1s-0.8-0.8-1.2-0.9c-0.6,0.1-1.1,0.3-1.4,0.8c-0.3,0.5-0.6,1.1-0.8,1.9
		c-0.2,0.8-0.3,1.6-0.3,2.6s-0.1,1.9-0.1,2.9L161,47.3L161,47.3z"/>
	<path class="st1" d="M204.8,33.9c-0.2,3.3-0.3,6.5-0.3,9.7c-0.1,3.2-0.1,6.4-0.1,9.6c0,1.9,0,3.8,0,5.7s0,3.8,0.1,5.7l-6.1,0.2V61
		c-0.6,1-1.3,1.8-2,2.3c-0.8,0.5-1.5,0.9-2.1,1.1c-0.7,0.2-1.3,0.4-1.8,0.4s-0.8,0-0.9,0c-1.3-0.3-2.3-0.8-3.2-1.7
		c-0.8-0.9-1.5-1.9-2-3.2s-0.8-2.7-1.1-4.4s-0.3-3.3-0.3-5.1c0-1.5,0.1-3.1,0.2-4.7c0.1-1.6,0.3-3.2,0.5-4.7
		c0.2-1.6,0.4-3.1,0.6-4.5c0.2-1.5,0.4-2.8,0.7-4.1l6.6,0.1c-0.2,1.2-0.4,2.5-0.6,3.9s-0.4,2.8-0.5,4.3s-0.3,2.9-0.4,4.4
		c-0.1,1.5-0.1,2.9-0.1,4.2c0,1.2,0.1,2.4,0.2,3.4s0.3,2,0.5,2.8s0.5,1.4,0.9,1.8c0.4,0.4,0.8,0.7,1.3,0.7c0.7,0,1.3-0.4,1.7-1.2
		s0.8-1.9,1.1-3.3s0.4-2.9,0.5-4.6c0.1-1.7,0.1-3.4,0.1-5.1c0-1.3,0-2.5-0.1-3.7c0-1.2-0.1-2.2-0.1-3.1c-0.1-1.1-0.1-2-0.2-3
		L204.8,33.9z"/>
	<path class="st1" d="M220.6,63.8c0.4-3.3,0.8-6.6,1-9.9c0.2-3.4,0.3-6.9,0.3-10.5c0-1.2-0.1-2.2-0.2-3c-0.2-0.7-0.4-1.3-0.6-1.7
		s-0.5-0.7-0.9-0.8c-0.3-0.1-0.6-0.2-0.9-0.2c-0.4,0-0.8,0.1-1.1,0.2c-0.4,0.1-0.7,0.4-1,0.8c-0.3,0.4-0.6,1-0.8,1.7
		c-0.3,0.7-0.5,1.7-0.7,2.9s-0.3,2.7-0.4,4.4c-0.1,1.7-0.1,3.8-0.1,6.1c0,0.9,0,1.7,0,2.7c0,0.9,0,1.8,0,2.6s0,1.6,0,2.2
		s0,1.1,0.1,1.4l-6.9-0.1c0.1-1.8,0.1-3.5,0.1-5s0.1-2.8,0.1-4s0-2.4,0-3.4c0-1.1,0-2.1,0-3.2c0-0.9,0-1.9,0-2.9s0-2,0-3.2
		s0-2.4-0.1-3.7c0-1.4-0.1-2.8-0.1-4.5l7.1-0.2l-0.1,3.1c0.5-1,1.1-1.9,1.8-2.5c0.6-0.6,1.3-1.1,1.9-1.4c0.6-0.3,1.2-0.6,1.8-0.7
		s1.1-0.2,1.6-0.2c1.3,0,2.3,0.4,3.1,1.3s1.5,2,1.9,3.5c0.5,1.5,0.8,3.1,1,5s0.3,3.8,0.3,5.8c0,1.5,0,2.9-0.1,4.4s-0.2,3-0.2,4.4
		c-0.1,1.5-0.2,2.9-0.3,4.2s-0.2,2.6-0.3,3.8L220.6,63.8z"/>
	<g>
		<path class="st1" d="M254.6,37c-0.3-0.4-0.6-0.6-1-0.8s-0.8-0.3-1.2-0.4c-0.4-0.1-0.8-0.2-1.1-0.2s-0.6,0-0.7,0
			c-0.6,0-1.1,0.3-1.6,0.8s-0.9,1.2-1.2,2.2s-0.6,2.1-0.7,3.5c-0.2,1.4-0.3,2.9-0.3,4.6c0,1.6,0.1,3.1,0.3,4.4
			c0.2,1.3,0.6,2.5,1.2,3.4c0.6,1,1.3,1.7,2.3,2.3s2.2,0.9,3.7,1l-0.2,5.1c-0.3,0-0.7,0.1-1,0.1s-0.7,0-1,0c-1.7,0-3.2-0.2-4.4-0.6
			c-1.2-0.4-2.3-1-3.2-1.8s-1.6-1.7-2.1-2.8s-1-2.2-1.3-3.5s-0.5-2.6-0.6-4s-0.2-2.9-0.2-4.4c0-1,0-2.2,0.1-3.4
			c0-1.3,0.2-2.5,0.4-3.8s0.5-2.5,0.9-3.7s0.9-2.3,1.6-3.2c0.7-0.9,1.5-1.7,2.5-2.3c1-0.6,2.3-0.8,3.7-0.8c0.6,0,1.2,0,1.8,0.1
			s1.1,0.2,1.6,0.4c0.5,0.1,0.9,0.3,1.3,0.5c0.4,0.2,0.6,0.3,0.8,0.5L254.6,37z"/>
		<path class="st1" d="M274.7,44.4c0,2.4-0.1,4.5-0.3,6.4c-0.2,1.8-0.5,3.4-0.9,4.7s-0.9,2.4-1.5,3.3c-0.6,0.9-1.2,1.6-1.9,2.1
			c-0.7,0.5-1.4,0.9-2.2,1.1c-0.8,0.2-1.6,0.3-2.4,0.3s-1.6-0.1-2.4-0.3s-1.5-0.5-2.1-1s-1.3-1.1-1.8-1.9c-0.5-0.8-1-1.9-1.4-3.1
			c-0.4-1.3-0.7-2.8-0.9-4.5c-0.2-1.8-0.3-3.8-0.3-6.2c0-3.6,0.3-6.5,0.8-8.8s1.2-4.1,2.1-5.4c0.9-1.3,1.8-2.2,2.9-2.7
			s2.2-0.8,3.4-0.8c0.7,0,1.5,0.1,2.2,0.2s1.4,0.4,2.1,0.9c0.7,0.4,1.3,1,1.9,1.8s1.1,1.8,1.5,3s0.7,2.7,1,4.5
			C274.5,39.8,274.7,41.9,274.7,44.4z M268.3,44.6c0-1.9-0.1-3.5-0.2-4.7s-0.3-2.2-0.6-2.9c-0.2-0.7-0.5-1.2-0.9-1.5
			s-0.7-0.4-1.1-0.4c-0.5,0-0.9,0.2-1.2,0.6c-0.3,0.4-0.6,1-0.8,1.9c-0.2,0.9-0.4,1.9-0.5,3.3c-0.1,1.3-0.2,3-0.2,4.9
			s0.1,3.6,0.2,4.8c0.1,1.3,0.4,2.3,0.6,3.1s0.6,1.3,1,1.6s0.8,0.5,1.2,0.5c0.9,0,1.5-0.9,1.9-2.7S268.3,48.4,268.3,44.6z"/>
		<path class="st1" d="M284.4,60.6c-0.5,0-1.1,0.1-1.8,0.1c-0.6,0-1.2,0.1-1.9,0.1s-1.6,0.1-2.5,0.2c-0.2-6.7-0.4-12.7-0.6-17.8
			c-0.2-5.2-0.4-9.5-0.5-13.1c-0.2-4.2-0.4-7.8-0.6-10.9l7.7-0.4c0,4.5,0,8.5,0,12.1s0,6.8,0,9.5c0,2.8,0,5.2,0,7.3s0,3.9,0,5.3
			C284.4,56.7,284.4,59.1,284.4,60.6z"/>
		<path class="st1" d="M305.1,60.6c-1.8,0.6-3.5,1.1-5,1.2c-1.5,0.2-2.8,0.3-3.7,0.3c-1.2,0-2.3-0.2-3.2-0.7
			c-0.9-0.5-1.7-1.1-2.4-1.9c-0.7-0.8-1.2-1.7-1.7-2.8c-0.4-1-0.8-2.1-1-3.3c-0.3-1.1-0.4-2.3-0.6-3.5c-0.1-1.2-0.2-2.3-0.2-3.3
			c0-2.6,0.2-5,0.6-7.2s1-4.1,1.8-5.7c0.8-1.6,1.8-2.9,2.9-3.8c1.2-0.9,2.5-1.4,4-1.4c1.2,0,2.3,0.3,3.4,0.9c1,0.6,1.9,1.6,2.6,2.8
			c0.7,1.3,1.3,2.9,1.7,4.8c0.4,2,0.6,4.3,0.6,6.9c0,0.8,0,1.5,0,2.3s-0.1,1.6-0.2,2.4L294.2,50c0.1,0.7,0.2,1.4,0.4,2.1
			c0.2,0.7,0.4,1.2,0.7,1.7c0.3,0.5,0.6,0.9,1,1.2s0.9,0.4,1.5,0.4c1.1,0,2.1-0.1,3.2-0.2s2.2-0.3,3.4-0.5L305.1,60.6z M294,45.1
			l4.9-0.9v-1.1c0-1.7-0.1-3-0.4-3.9s-0.5-1.6-0.8-2c-0.4-0.5-0.8-0.8-1.2-0.9c-0.6,0.1-1,0.3-1.4,0.8s-0.6,1.1-0.8,1.8
			c-0.2,0.7-0.3,1.6-0.3,2.5s-0.1,1.9-0.1,2.8L294,45.1L294,45.1z"/>
		<path class="st1" d="M326.6,53.4c-0.1,2.3-0.2,4.4-0.2,6.2c-0.1,1.8-0.2,3.4-0.5,4.7c-0.2,1.3-0.6,2.5-1.1,3.4s-1.1,1.6-2,2.2
			c-0.8,0.6-1.9,1-3.2,1.2c-1.3,0.2-2.9,0.4-4.8,0.4c-0.9,0-1.9,0-3-0.1s-2.2-0.2-3.4-0.4l0.2-6.5c1.5,0.1,2.8,0.2,3.9,0.2
			s2.1,0.1,2.8,0.1c0.9,0.1,1.7,0.1,2.3,0.1c1,0,1.7-0.6,2.2-1.7c0.5-1.1,0.8-2.6,0.8-4.6c-0.4,0.8-0.8,1.4-1.2,1.9
			c-0.4,0.5-0.9,0.9-1.4,1.2s-0.9,0.5-1.4,0.6c-0.4,0.1-0.9,0.1-1.2,0.1c-1,0-2-0.3-3-0.9s-1.9-1.6-2.7-3c-0.8-1.4-1.4-3.3-1.9-5.6
			s-0.7-5.1-0.7-8.5c0-2.6,0.2-4.9,0.6-6.9s1-3.6,1.7-5c0.7-1.3,1.5-2.4,2.5-3c0.9-0.7,1.9-1,2.9-1c0.5,0,1,0.1,1.5,0.2
			c0.5,0.2,1.1,0.4,1.7,0.8s1.1,1,1.6,1.6c0.5,0.7,0.9,1.6,1.3,2.6l-0.1-3.7l5.3,0.3L326.6,53.4z M320.1,47.3c0-0.6,0-1.3,0-2.2
			c0-0.8,0-1.7-0.1-2.6c0-0.9-0.1-1.8-0.3-2.7c-0.1-0.9-0.3-1.7-0.6-2.3c-0.2-0.7-0.6-1.3-1-1.7s-0.9-0.6-1.5-0.6
			c-0.8,0-1.3,0.3-1.8,1c-0.4,0.6-0.7,1.4-1,2.4s-0.3,2.1-0.4,3.3s-0.1,2.3-0.1,3.4c0,0.8,0,1.6,0,2.4s0.1,1.7,0.2,2.5
			s0.2,1.6,0.4,2.4c0.2,0.8,0.4,1.4,0.6,2s0.5,1,0.9,1.4c0.3,0.3,0.8,0.5,1.2,0.5c0.6,0,1.1-0.2,1.5-0.7s0.8-1.1,1-2
			s0.5-1.8,0.6-2.9C320,49.8,320.1,48.6,320.1,47.3z"/>
		<path class="st1" d="M339.3,21.9c0,0.6-0.1,1.2-0.3,1.7c-0.2,0.5-0.5,1-0.9,1.4s-0.9,0.7-1.5,0.9c-0.6,0.2-1.3,0.3-2.1,0.3
			c-0.9,0-1.6-0.1-2.2-0.3c-0.6-0.2-1.1-0.5-1.5-0.9s-0.7-0.8-0.8-1.4c-0.2-0.5-0.3-1.1-0.3-1.7s0.1-1.2,0.3-1.7
			c0.2-0.5,0.5-1,0.8-1.4c0.4-0.4,0.9-0.7,1.5-0.9c0.6-0.2,1.3-0.3,2.2-0.3s1.6,0.1,2.2,0.3c0.6,0.2,1.1,0.5,1.5,0.9
			s0.7,0.9,0.9,1.4C339.2,20.7,339.3,21.3,339.3,21.9z M337.5,30.5c-0.1,1.1-0.2,2.3-0.3,3.5c-0.1,1.2-0.1,2.5-0.2,3.9
			c-0.1,1.3-0.1,2.7-0.1,4.1s0,2.7,0,4.1c0,1.5,0,3,0,4.5c0,1.4,0.1,2.8,0.1,4s0.1,2.3,0.2,3.2s0.2,1.7,0.3,2.2
			c-0.8,0-1.6,0-2.5,0.1c-0.7,0-1.6,0.1-2.5,0.1c-0.9,0.1-1.8,0.1-2.7,0.3c0.3-3.6,0.6-6.8,0.7-9.8s0.2-5.6,0.2-8c0-2,0-3.8-0.1-5.3
			s-0.1-2.8-0.2-3.9c-0.1-1.2-0.2-2.3-0.3-3.2c1.1,0.1,2.1,0.2,3,0.3c0.9,0,1.7,0.1,2.4,0.1c0.3,0,0.6,0,0.9,0s0.5,0,0.7,0
			C337.2,30.6,337.4,30.6,337.5,30.5z"/>
		<path class="st1" d="M358.3,44.4c0,2.4-0.1,4.5-0.3,6.4c-0.2,1.8-0.5,3.4-0.9,4.7s-0.9,2.4-1.5,3.3c-0.6,0.9-1.2,1.6-1.9,2.1
			c-0.7,0.5-1.4,0.9-2.2,1.1c-0.8,0.2-1.6,0.3-2.4,0.3s-1.6-0.1-2.4-0.3s-1.5-0.5-2.1-1s-1.3-1.1-1.8-1.9c-0.5-0.8-1-1.9-1.4-3.1
			c-0.4-1.3-0.7-2.8-0.9-4.5c-0.2-1.8-0.3-3.8-0.3-6.2c0-3.6,0.3-6.5,0.8-8.8s1.2-4.1,2.1-5.4c0.9-1.3,1.8-2.2,2.9-2.7
			s2.2-0.8,3.4-0.8c0.7,0,1.5,0.1,2.2,0.2s1.4,0.4,2.1,0.9c0.7,0.4,1.3,1,1.9,1.8s1.1,1.8,1.5,3s0.7,2.7,1,4.5
			C358.2,39.8,358.3,41.9,358.3,44.4z M351.9,44.6c0-1.9-0.1-3.5-0.2-4.7s-0.3-2.2-0.6-2.9c-0.2-0.7-0.5-1.2-0.9-1.5
			s-0.7-0.4-1.1-0.4c-0.5,0-0.9,0.2-1.2,0.6c-0.3,0.4-0.6,1-0.8,1.9c-0.2,0.9-0.4,1.9-0.5,3.3c-0.1,1.3-0.2,3-0.2,4.9
			s0.1,3.6,0.2,4.8c0.1,1.3,0.4,2.3,0.6,3.1s0.6,1.3,1,1.6s0.8,0.5,1.2,0.5c0.9,0,1.5-0.9,1.9-2.7S351.9,48.4,351.9,44.6z"/>
		<path class="st1" d="M367.4,59c0,0.7-0.1,1.4-0.2,2s-0.3,1.2-0.6,1.7c-0.3,0.5-0.6,1-1,1.5c-0.4,0.5-0.8,1-1.4,1.5l-2.2-1
			c0.1-0.2,0.3-0.3,0.4-0.6c0.1-0.2,0.2-0.4,0.4-0.7c0.1-0.3,0.3-0.6,0.4-0.9c-0.8-0.2-1.5-0.6-2.1-1.2s-0.8-1.4-0.8-2.3
			c0-0.5,0.1-0.9,0.3-1.4s0.4-0.8,0.8-1.1c0.3-0.3,0.7-0.6,1.1-0.8s0.9-0.3,1.4-0.3s0.9,0.1,1.4,0.3c0.4,0.2,0.8,0.4,1.1,0.8
			c0.3,0.3,0.6,0.7,0.8,1.1S367.4,58.5,367.4,59z"/>
	</g>
	<path class="st1" d="M64.3,102.5c-0.2,3.3-0.3,6.5-0.3,9.7c-0.1,3.2-0.1,6.4-0.1,9.6c0,1.9,0,3.8,0,5.7c0,1.9,0,3.8,0.1,5.7
		l-6.1,0.2v-3.8c-0.6,1-1.3,1.8-2,2.3c-0.8,0.5-1.5,0.9-2.1,1.1c-0.7,0.2-1.3,0.4-1.8,0.4s-0.8,0-0.9,0c-1.3-0.3-2.3-0.8-3.2-1.7
		c-0.8-0.9-1.5-1.9-2-3.2c-0.5-1.3-0.8-2.7-1.1-4.4c-0.3-1.7-0.3-3.3-0.3-5.1c0-1.5,0.1-3.1,0.2-4.7c0.1-1.6,0.3-3.2,0.5-4.7
		c0.2-1.6,0.4-3.1,0.6-4.5c0.2-1.5,0.4-2.8,0.7-4.1l6.6,0.1c-0.2,1.2-0.4,2.5-0.6,3.9s-0.4,2.8-0.5,4.3s-0.3,2.9-0.4,4.4
		c-0.1,1.5-0.1,2.9-0.1,4.2c0,1.2,0.1,2.4,0.2,3.4s0.3,2,0.5,2.8c0.2,0.8,0.5,1.4,0.9,1.8c0.4,0.4,0.8,0.7,1.3,0.7
		c0.7,0,1.3-0.4,1.7-1.2c0.4-0.8,0.8-1.9,1.1-3.3c0.3-1.4,0.4-2.9,0.5-4.6c0.1-1.7,0.1-3.4,0.1-5.1c0-1.3,0-2.5-0.1-3.7
		c0-1.2-0.1-2.2-0.1-3.1c-0.1-1.1-0.1-2-0.2-3L64.3,102.5z"/>
</g>
</svg>
